/* XPM */
static char *init0[] = {
/* columns rows colors chars-per-pixel */
"32 32 7 1 ",
"  c #1A1C2C",
". c #333C57",
"X c #245841",
"o c #346B5C",
"O c #38B764",
"+ c #A7F070",
"@ c None",
/* pixels */
"@@@@@@@@@@@@@@@@@@@@@@@@@@@@@@@@",
"@@@@@@@@@@@@@@@@@@@@@@@@@@@@@@@@",
"@@@@@@@@@@@@@@@@@@@@@@@@@@@@@@@@",
"@@@@@@@@@@@@@@@@@@@@@@@@@@@@@@@@",
"@@@@@@@@@@@@@@@@@@@@@@@@@@@@@@@@",
"@@@@@@@@@@@@@@@@@@@@@@@@@@@@@@@@",
"@@@@@@@@@@@@@@@@@@@@@@@@@@@@@@@@",
"@@@@@@@@@@@@@@@@@@@@@@@@@@@@@@@@",
"@@@@@@@@@@@@@@ @@@@@@@@@@@@@@@@@",
"@@@@@@@@@@@@@@ @@@@@@@@@@@@@@@@@",
"@@@@@@@@@@@@@@ @ @@@@@@@@@@@@@@@",
"@@@@@@@@@@@@   .....@@@@@@@@@@@@",
"@@@@@@@@@@@oo ........@@@@@@@@@@",
"@@@@@@@@@@X+o ..     @@@@@@@@@@@",
"@@@@@@@@@@XXo .   O+ @@@@@@@@@@@",
"@@@@@@@@@@ ..     ++ @@@@@@@@@@@",
"@@@@@@@@@@@   .     @@@@@@@@@@@@",
"@@@@@@@@@@ .. ..   @@@@@@@@@@@@@",
"@@@@@@@@@@  ..@     @@@@@@@@@@@@",
"@@@@@@@@@@  ...@@    @@@@@@@@@@@",
"@@@@@@@@@@@ ....@     @@@@@@@@@@",
"@@@@@@@@@@@@.. O@@   O@@@@@@@@@@",
"@@@@@@@@@@@@@. +@@@  +@@@@@@@@@@",
"@@@@@@@@@@@@@@  @@@@  @@@@@@@@@@",
"@@@@@@@@@@@@@@@@@@@@@@@@@@@@@@@@",
"@@@@@@@@@@@@@@@@@@@@@@@@@@@@@@@@",
"@@@@@@@@@@@@@@@@@@@@@@@@@@@@@@@@",
"@@@@@@@@@@@@@@@@@@@@@@@@@@@@@@@@",
"@@@@@@@@@@@@@@@@@@@@@@@@@@@@@@@@",
"@@@@@@@@@@@@@@@@@@@@@@@@@@@@@@@@",
"@@@@@@@@@@@@@@@@@@@@@@@@@@@@@@@@",
"@@@@@@@@@@@@@@@@@@@@@@@@@@@@@@@@"
};
