/* XPM */
static char *portal0[] = {
/* columns rows colors chars-per-pixel */
"32 32 12 1 ",
"  c #341D3D",
". c #42234E",
"X c #4D295B",
"o c #582F68",
"O c #673779",
"+ c #494949",
"@ c gray32",
"# c #565656",
"$ c #5F5F5F",
"% c #734286",
"& c #7E4893",
"* c None",
/* pixels */
"*********#@@@@####@@@@#*********",
"******$##+@@@@@##@@@@@+##$******",
"*****$#@+##$$&&&&&&$$##+@#$*****",
"****$#@##&&%%%%&&&%%&&&##@#$****",
"***$#@#&&%%%%%%%%%%%%%&&&#@#$***",
"***$@#&&%%O%OOO%%%%O%%%%&&#@$***",
"**$#+#&%%%OOOOOOO%OOO%%%%&#+#$**",
"*$#+#&&%%OOOoooOOOOOOO%%%&&#+#$*",
"*$#+#&%%%OOooooooOooOO%%%%&#+#$*",
"*$+#&&%%%OoooooXoooooOO%%%%&#+$*",
"*$+#&%%%OOoooXXXXXoooOO%%%%&#+$*",
"*$+#&%%OOooooXXXXXXoooOO%%%%#+$*",
"*$+#%%%OOoooXX.X.XXoooOOO%%%#+$*",
"*$@#%%OOOooXXX....XoooOOO%%%#@$*",
"*$@#%%OOOooXX..  .XXoooOO%%%#@$*",
"*$@#%%OOOOooX.   .XXoooOO%%&#@$*",
"*$@#%%OOOoooX.    .XXooO%%%&#@$*",
"*$@#%%OOOooXX..   .XXooO%%&&#@$*",
"*$@#%%OOoooXX.    .XXooO%%&&#@$*",
"*$@#%%OOoooXX.   ..XXooOO%&&#@$*",
"*$@#&%%OoooXXX.  ..XoooOO%&&#@$*",
"*$@#&%%OOoooX.....XXoooOO%%&#@$*",
"*$@#&%%OOoooXX...XXXooOOO%%&#@$*",
"*$@#&&%OOOooXXX.XXXooOOOO%%&#@$*",
"*$@#&&%OOOoooXXXXXoooOOO%%%%#@$*",
"*$@#&&%%OOoooXXXoXooOOO%%%%%#@$*",
"*#+#&%%%%OOoooXoooooOOO%%%%%#+#*",
"*#+#&%%%%OOOoooooooOOO%%%%%&#+#*",
"*#+#&%%%%%OOOoooooOOOO%%%%%&#+#*",
"*#+#&&%%%%OOOOOooOOOO%%%%%&&#+#*",
"*#+#&&%%%%OO%OOOOOO%%%%%%&&&#+#*",
"*#+#&&&&%%%%%%%%OO%%%%%%&&&&#+#*"
};
