/* XPM */
static char *portal0[] = {
/* columns rows colors chars-per-pixel */
"32 32 7 1 ",
"  c #341D3D",
". c #42234E",
"X c #4D295B",
"o c #582F68",
"O c #734286",
"+ c #7E4893",
"@ c None",
/* pixels */
"@@@@@@@@@@+@@@@@@@@@@@@@@@@@@@@@",
"@@@@@@@@@@@@@@@@@@@@@@@+@@@@@@@@",
"@@@@@@++@@@@@@@@@@@@@@@++@@@@@@@",
"@@@@@@O@@@@@@@@@@@@@@@@@@@@@@@@@",
"@@@@@@@@@@@@@@o@@@@@@@@@@@@@@@@@",
"@@@@@@@@@@@@@ooo@@@@@@@@@@+@@+@@",
"@@@@O@@@@@@@@ooooo@@@@@@@@O@@@@@",
"@@@@O@@@@@@@oooXoooo@@@@@@@+@@@@",
"@@@@@@@@@@@oooXXXXooo@@@@@@@@@@@",
"@@+@@@@@@@@ooXXXXXXoo@@@@@@@@@@@",
"@@+@@@@@@@ooXXX..XXoo@@@@@@@@@@@",
"@@@@@@@@@@ooXX. ..Xoo@@@@@@@+@@@",
"@@@+@@@@@@oXX..  .Xooo@@@@@@+@@@",
"@@@O@@@@@ooXX.   .XXoo@@@@@@+@@@",
"@@@@@@@@@ooX..  ...Xoo@@@@@@@@@@",
"@@O@@@@@@ooX..   ..Xoo@@@@@@@@@@",
"@+@@@@@@@ooXX.   ..Xoo@@@@@@@@@@",
"@@@@@@@@@ooXX.   .XXo@@@@@@@@@@@",
"@@@@@@@@@@oXX... .XXo@@@@@@@@@@@",
"@@+@@@@@@@ooXX....XXo@@@@@@@@+@@",
"@@O+@@@@@@ooXXX..XXoo@@@@@@@@@@@",
"@@@@@@@@@@ooXXXXXXXo@@@@@@@@@@@@",
"@@@@@@@@@@@ooXXXXXoo@@@@@@@@+@@@",
"@@@@@@@@@@@@oooXoooo@@@@@@@+@@@@",
"@@@+@@@@@@@@oooooo@@@@@@@@@+@@@@",
"@@@@+@@@@@@@@@oo@@@@@@@@@@@@@@@@",
"@@@@+@@@@@@@@@@@@@@@@@@@@@@@@@@@",
"@@@@@@@@@@@@@@@@@@@@@@@@@+O@@@@@",
"@@@@@@@@@@@@@@@@@@@@@@@@@+@@@@@@",
"@@@@@+@@@@@@@@@@@@@@@@@@@@@@@@@@",
"@@@@@O+@@@@@@@@@@@@@@@@@@@@@@@@@",
"@@@@@@@@@@@@@@@@@@@@+@@@@@@@@@@@"
};
