/* XPM */
static char *batt0[] = {
/* columns rows colors chars-per-pixel */
"32 32 11 1 ",
"  c black",
". c #222A5C",
"X c #37446E",
"o c #158968",
"O c #46C657",
"+ c #566A89",
"@ c #8BABBF",
"# c #C9EC85",
"$ c #CCE2E1",
"% c white",
"& c None",
/* pixels */
"&&&&&&&&&&&&&&&&&&&&&&&&&&&&&&&&",
"&&&&&&&&&&&&&&&&&&&&&&&&&&&&&&&&",
"&&&&&&&&&&            &&&&&&&&&&",
"&&&&&&&&  ............  &&&&&&&&",
"&&&&&&& ......oooo.....X &&&&&&&",
"&&&&&&& X.............++ &&&&&&&",
"&&&&&&&& +XXXXX+++++++@ &&&&&&&&",
"&&&&&&&& +   oooOOo & @ &&&&&&&&",
"&&&&&&&& + & oooOOo & $ &&&&&&&&",
"&&&&&&&& + & oOO##O & $ &&&&&&&&",
"&&&&&&&& @ & OOO%%O & $ &&&&&&&&",
"&&&&&&&& @ & OOO%%O & $ &&&&&&&&",
"&&&&&&&& @ & OOo%%O & $ &&&&&&&&",
"&&&&&&&& @ & Ooo%%O & @ &&&&&&&&",
"&&&&&&&& + & Ooo%%O & $ &&&&&&&&",
"&&&&&&&& @ & OoO%%O & $ &&&&&&&&",
"&&&&&&&& @ & OOo%%O & $ &&&&&&&&",
"&&&&&&&& @ & Ooo%#O & $ &&&&&&&&",
"&&&&&&&& @ & Ooo#%O & $ &&&&&&&&",
"&&&&&&&& @ & Ooo%%O & $ &&&&&&&&",
"&&&&&&&& @ & Ooo%%O & $ &&&&&&&&",
"&&&&&&&& @ & Ooo%%O & $ &&&&&&&&",
"&&&&&&&& @ & Ooo%#O & $ &&&&&&&&",
"&&&&&&&& @ & Ooo##O & $ &&&&&&&&",
"&&&&&&&& @   Ooo##O   $ &&&&&&&&",
"&&&&&&&& @...Ooo##O...$ &&&&&&&&",
"&&&&&&& .+....OO##....@X &&&&&&&",
"&&&&&&& X.............++ &&&&&&&",
"&&&&&&&&  XXXXX+++++++  &&&&&&&&",
"&&&&&&&&&&            &&&&&&&&&&",
"&&&&&&&&&&&&&&&&&&&&&&&&&&&&&&&&",
"&&&&&&&&&&&&&&&&&&&&&&&&&&&&&&&&"
};
