/* XPM */
static char *cube3[] = {
/* columns rows colors chars-per-pixel */
"32 32 8 1 ",
"  c black",
". c #2C5B6D",
"X c #158968",
"o c #46C657",
"O c #663B93",
"+ c #8B72DE",
"@ c #3DABEA",
"# c None",
/* pixels */
"################################",
"################################",
"################################",
"################################",
"################################",
"################################",
"################################",
"################################",
"################################",
"###########        #############",
"########## XXXX++XX       ######",
"######### XXXXXXXXXXXXX++@ #####",
"######## X++++X++++++XXXX+ #####",
"####### XX+++X+++++++++@XX #####",
"###### ooooooo++++++++@+XX #####",
"###### ...O...@@@@@@@@++XX #####",
"###### ...O....OOOOOO@++XX #####",
"###### O........OOOOO@+X+X #####",
"###### OO........OOOO@+X+X #####",
"###### OO........OOOO@X+XX #####",
"###### OO.......O.OO.oX+X+ #####",
"###### OO.......OO..OoXX++ #####",
"###### .......O..OO..o+X++ #####",
"###### .O.....O......oXX++ #####",
"###### .OO......O....oXX+ ######",
"###### ..O....O.O....oXX #######",
"###### .......OOO....oXX########",
"#######       O......o #########",
"##############        ##########",
"################################",
"################################",
"################################"
};
