/* XPM */
static char *fulmine0[] = {
/* columns rows colors chars-per-pixel */
"32 32 37 1 ",
"  c #B54724",
". c #B84C25",
"X c #BE5627",
"o c #C56028",
"O c #C86529",
"+ c #CE6F2B",
"@ c #D1742C",
"# c #D4792D",
"$ c #D87E2E",
"% c #DE882F",
"& c #E49231",
"* c #E79732",
"= c #E89B34",
"- c #E99F35",
"; c #EAA337",
": c #EBA738",
"> c #ECAB3A",
", c #EDAF3B",
"< c #EEB43D",
"1 c #F0C041",
"2 c #F2C844",
"3 c #F4D047",
"4 c #F5D449",
"5 c #F6D84A",
"6 c #F7DC51",
"7 c #F8DE54",
"8 c #F8E057",
"9 c #F9E25B",
"0 c #F9E45E",
"q c #FAE661",
"w c #FBE965",
"e c #FCED6B",
"r c #FCEF6F",
"t c #FDF172",
"y c #FEF77C",
"u c #FFF97F",
"i c None",
/* pixels */
"iiiiiiiiiii                  iii",
"iiiiiiiiii+*<4555555522222***iii",
"iiiiiiiiii*7uuuy5555555553*$ iii",
"iiiiiiiiii3uuuu5555555554*o iiii",
"iiiiiiiii 8uuu855555555=**iiiiii",
"iiiiiiiii uuuu55555555*** iiiiii",
"iiiiiiii $uuu85555555**# iiiiiii",
"iiiiiiii >uue5555555>* iiiiiiiii",
"iiiiiii $5uu5555555=* iiiiiiiiii",
"iiiiiii >qu5555555**%iiiiiiiiiii",
"iiiiii $5u8555555**@ iiiiiiiiiii",
"iiiiii >qu555555** iiiiiiiiiiiii",
"iiiiii*5uu55554** iiiiiiiiiiiiii",
"iiiii >qu85555** iiiiiiiiiiiiiii",
"iiiii.5u85551**.iiiiiiiiiiiiiiii",
"iiiii 69555>**@        iiiiiiiii",
"iiii <555553,::::::;**** iiiiiii",
"iiii 5555555555555551** iiiiiiii",
"iii ::::::::55555555*% iiiiiiiii",
"iii       *=ue5555=**iiiiiiiiiii",
"iiiiiiiiii*tu5555,*& iiiiiiiiiii",
"iiiiiiiii.tu5555** iiiiiiiiiiiii",
"iiiiiiii.*u5555*X iiiiiiiiiiiiii",
"iiiiiii *-5555**iiiiiiiiiiiiiiii",
"iiiiii *-y55=* iiiiiiiiiiiiiiiii",
"iiiiii$*wr5** iiiiiiiiiiiiiiiiii",
"iiiii *085* iiiiiiiiiiiiiiiiiiii",
"iiiii*554*iiiiiiiiiiiiiiiiiiiiii",
"iiii ,5,* iiiiiiiiiiiiiiiiiiiiii",
"iiiiO5* iiiiiiiiiiiiiiiiiiiiiiii",
"iii ** iiiiiiiiiiiiiiiiiiiiiiiii",
"ii &&iiiiiiiiiiiiiiiiiiiiiiiiiii"
};
