/* XPM */
static char *fulmine1[] = {
/* columns rows colors chars-per-pixel */
"32 32 86 1 ",
"  c #B54724",
". c #B94D25",
"X c #BA4F25",
"o c #BC5226",
"O c #BE5526",
"+ c #BE5627",
"@ c #BF5727",
"# c #C05927",
"$ c #C25C28",
"% c #C45F28",
"& c #C76429",
"* c #C86529",
"= c #C96629",
"- c #C9682A",
"; c #CC6B2A",
": c #CC6C2B",
"> c #CD6D2B",
", c #CE6F2B",
"< c #CF702B",
"1 c #CE732D",
"2 c #D2752C",
"3 c #D4792D",
"4 c #D57A2D",
"5 c #D37C2F",
"6 c #D67C2D",
"7 c #D67F2F",
"8 c #D7802F",
"9 c #DB832F",
"0 c #DE882F",
"q c #D68130",
"w c #D98631",
"e c #DA8B32",
"r c #DD8831",
"t c #DC8932",
"y c #DB8C33",
"u c #DE8F33",
"i c #E08D31",
"p c #E49331",
"a c #E59331",
"s c #E29433",
"d c #E79732",
"f c #E29836",
"g c #E19A37",
"h c #E89B34",
"j c #E99F35",
"k c #EAA337",
"l c #E7A73A",
"z c #EBA738",
"x c #ECAB3A",
"c c #EAAF3B",
"v c #EDAF3B",
"b c #EEB43D",
"n c #EFB83E",
"m c #EFBC40",
"M c #F0BF41",
"N c #F0C041",
"B c #F1C443",
"V c #F1C146",
"C c #F1C347",
"Z c #F2C844",
"A c #F3CC46",
"S c #F4D047",
"D c #F5D449",
"F c #F6D84A",
"G c #F7DA4D",
"H c #F5D151",
"J c #F5D456",
"K c #F7DC51",
"L c #F8DE54",
"P c #F8DD56",
"I c #F8DC5A",
"U c #F8DF5B",
"Y c #F8E057",
"T c #F9E25B",
"R c #F9E45E",
"E c #FAE661",
"W c #FBE965",
"Q c #FBE867",
"! c #FBE968",
"~ c #FCED6B",
"^ c #FCEF6F",
"/ c #FDF172",
"( c #FDF375",
") c #FEF77C",
"_ c #FFF97F",
"` c None",
/* pixels */
"````````````````````````````````",
"````````````#4ffgffgfgr9#```````",
"````````````t!_EFFDFFFka+```````",
"````````````C__EFFFFFZd-````````",
"```````````%U_)FFFFFDh2`````````",
"```````````q^_QFFFFFk0``````````",
"```````````l)_GFFFFbdX``````````",
"``````````+D_~FFFFNd#```````````",
"``````````>Q_KFFFAh;````````````",
"``````````g(^FFFxh3`````````````",
"``````````C_YFFFx0``````````````",
"`````````*U(FFFna+``````````````",
"`````````q^RFFBd&```````````````",
"`````````c(FFSh<````````````````",
"````````+BLFFkd3><><>```````````",
"````````;FFFFZZZZZbdd```````````",
"````````uFFDFDFFFFBd6```````````",
"````````3zzzxPTFFFk0````````````",
"`````````  Xk/FFDb0`````````````",
"```````````*JTFFb3``````````````",
"`````````` s/FFm2 ``````````````",
"``````````$JTFN3 ```````````````",
"``````````e~FB3 ````````````````",
"`````````oJPA7 `````````````````",
"`````````6EAq ``````````````````",
"```````` MDw ```````````````````",
"````````1Dy ````````````````````",
"``````` ie `````````````````````",
"```````$3 ``````````````````````",
"```````@````````````````````````",
"````````````````````````````````",
"````````````````````````````````"
};
