/* XPM */
static char *portal1_spritesheet[] = {
/* columns rows colors chars-per-pixel */
"256 32 57 1 ",
"  c #3D1D1D",
". c #203D1D",
"X c #3D3B1D",
"o c #3D1D31",
"O c #341D3D",
"+ c #1D203D",
"@ c #1D3D3B",
"# c #4E2323",
"$ c #5B2929",
"% c #4E233E",
"& c #682F2F",
"* c #793737",
"= c #284E23",
"- c #2E5B29",
"; c #35682F",
": c #377937",
"> c #4C4E23",
", c #5B5829",
"< c #65682F",
"1 c #797637",
"2 c #232C4E",
"3 c #29345B",
"4 c #42234E",
"5 c #5B2949",
"6 c #4D295B",
"7 c #682F53",
"8 c #582F68",
"9 c #793768",
"0 c #673779",
"q c #234C4E",
"w c #295B58",
"e c #2F4168",
"r c #2F5F68",
"t c #374579",
"y c #376F79",
"u c gray27",
"i c #494949",
"p c #4E4E4E",
"a c gray32",
"s c #565656",
"d c #5F5F5F",
"f c #686868",
"g c #864242",
"h c #934848",
"j c #864266",
"k c #93486F",
"l c #428642",
"z c #489348",
"x c #828642",
"c c #938F48",
"v c #425086",
"b c #734286",
"n c #7E4893",
"m c #486093",
"M c #428286",
"N c #489387",
"B c None",
/* pixels */
"BBassssssssdfffffffdssssssssaBBBBBassssssssdfffffffdssssssssaBBBBBassssssssdfffffffdssssssssaBBBBBassssssssdfffffffdssssssssaBBBBBassssssssdfffffffdssssssssaBBBBBassssssssdfffffffdssssssssaBBBBBassssssssdfffffffdssssssssaBBBBBassssssssdfffffffdssssssssaBBB",
"BBasuusiiidffnnnnnffdiiisuusaBBBBBasuusiiidffmmmmmffdiiisuusaBBBBBasuusiiidffhhhhhffdiiisuusaBBBBBasuusiiidffcccccffdiiisuusaBBBBBasuusiiidffzzzzzffdiiisuusaBBBBBasuusiiidffNNNNNffdiiisuusaBBBBBasuusiiidffkkkkkffdiiisuusaBBBBBasuusiiidffNNNNNffdiiisuusaBBB",
"BBdsuispadffnnbbbbnffdppsiusdBBBBBdsuispadffmmvvvvmffdppsiusdBBBBBdsuispadffhhgggghffdppsiusdBBBBBdsuispadffccxxxxcffdppsiusdBBBBBdsuispadffzzllllzffdppsiusdBBBBBdsuispadffNNMMMMNffdppsiusdBBBBBdsuispadffkkjjjjkffdppsiusdBBBBBdsuispadffNNMMMMNffdppsiusdBBB",
"BBdsuspaadfnnbb00bbnffdapsusdBBBBBdsuspaadfmmvvttvvmffdapsusdBBBBBdsuspaadfhhgg**gghffdapsusdBBBBBdsuspaadfccxx11xxcffdapsusdBBBBBdsuspaadfzzll::llzffdapsusdBBBBBdsuspaadfNNMMyyMMNffdapsusdBBBBBdsuspaadfkkjj99jjkffdapsusdBBBBBdsuspaadfNNMMyyMMNffdapsusdBBB",
"BBdsisaadffnbb0000bbnffdasisdBBBBBdsisaadffmvvttttvvmffdasisdBBBBBdsisaadffhgg****gghffdasisdBBBBBdsisaadffcxx1111xxcffdasisdBBBBBdsisaadffzll::::llzffdasisdBBBBBdsisaadffNMMyyyyMMNffdasisdBBBBBdsisaadffkjj9999jjkffdasisdBBBBBdsisaadffNMMyyyyMMNffdasisdBBB",
"BBdsisaadfnnb00000bbnnfdasisdBBBBBdsisaadfmmvtttttvvmmfdasisdBBBBBdsisaadfhhg*****gghhfdasisdBBBBBdsisaadfccx11111xxccfdasisdBBBBBdsisaadfzzl:::::llzzfdasisdBBBBBdsisaadfNNMyyyyyMMNNfdasisdBBBBBdsisaadfkkj99999jjkkfdasisdBBBBBdsisaadfNNMyyyyyMMNNfdasisdBBB",
"BBBsspadffnnb000800bbnfdapssBBBBBBBsspadffmmvtttettvvmfdapssBBBBBBBsspadffhhg***&**gghfdapssBBBBBBBsspadffccx111<11xxcfdapssBBBBBBBsspadffzzl:::;::llzfdapssBBBBBBBsspadffNNMyyyryyMMNfdapssBBBBBBBsspadffkkj999799jjkfdapssBBBBBBBsspadffNNMyyyryyMMNfdapssBBBB",
"BBBsspadfnnbb000880bbnffdassBBBBBBBsspadfmmvvttteetvvmffdassBBBBBBBsspadfhhgg***&&*gghffdassBBBBBBBsspadfccxx111<<1xxcffdassBBBBBBBsspadfzzll:::;;:llzffdassBBBBBBBsspadfNNMMyyyrryMMNffdassBBBBBBBsspadfkkjj999779jjkffdassBBBBBBBsspadfNNMMyyyrryMMNffdassBBBB",
"BBBsipdffnnb00088800bbnfdaisBBBBBBBsipdffmmvttteeettvvmfdaisBBBBBBBsipdffhhg***&&&**gghfdaisBBBBBBBsipdffccx111<<<11xxcfdaisBBBBBBBsipdffzzl:::;;;::llzfdaisBBBBBBBsipdffNNMyyyrrryyMMNfdaisBBBBBBBsipdffkkj99977799jjkfdaisBBBBBBBsipdffNNMyyyrrryyMMNfdaisBBBB",
"BBBsipdfnnbb00886800bbnfdaisBBBBBBBsipdfmmvvttee3ettvvmfdaisBBBBBBBsipdfhhgg**&&$&**gghfdaisBBBBBBBsipdfccxx11<<,<11xxcfdaisBBBBBBBsipdfzzll::;;-;::llzfdaisBBBBBBBsipdfNNMMyyrrwryyMMNfdaisBBBBBBBsipdfkkjj99775799jjkfdaisBBBBBBBsipdfNNMMyyrrwryyMMNfdaisBBBB",
"BBBsipdfnnb008866800bbnfdaisBBBBBBBsipdfmmvttee33ettvvmfdaisBBBBBBBsipdfhhg**&&$$&**gghfdaisBBBBBBBsipdfccx11<<,,<11xxcfdaisBBBBBBBsipdfzzl::;;--;::llzfdaisBBBBBBBsipdfNNMyyrrwwryyMMNfdaisBBBBBBBsipdfkkj997755799jjkfdaisBBBBBBBsipdfNNMyyrrwwryyMMNfdaisBBBB",
"BBBsipdfnb0008866800bbnffdisBBBBBBBsipdfmvtttee33ettvvmffdisBBBBBBBsipdfhg***&&$$&**gghffdisBBBBBBBsipdfcx111<<,,<11xxcffdisBBBBBBBsipdfzl:::;;--;::llzffdisBBBBBBBsipdfNMyyyrrwwryyMMNffdisBBBBBBBsipdfkj9997755799jjkffdisBBBBBBBsipdfNMyyyrrwwryyMMNffdisBBBB",
"BBBsidffnb0008664800bbnnfdisBBBBBBBsidffmvttte332ettvvmmfdisBBBBBBBsidffhg***&$$#&**gghhfdisBBBBBBBsidffcx111<,,><11xxccfdisBBBBBBBsidffzl:::;--=;::llzzfdisBBBBBBBsidffNMyyyrwwqryyMMNNfdisBBBBBBBsidffkj999755%799jjkkfdisBBBBBBBsidffNMyyyrwwqryyMMNNfdisBBBB",
"BBBsidfnnb00886448800bbnfdisBBBBBBBsidfmmvttee322eettvvmfdisBBBBBBBsidfhhg**&&$##&&**gghfdisBBBBBBBsidfccx11<<,>><<11xxcfdisBBBBBBBsidfzzl::;;-==;;::llzfdisBBBBBBBsidfNNMyyrrwqqrryyMMNfdisBBBBBBBsidfkkj99775%%7799jjkfdisBBBBBBBsidfNNMyyrrwqqrryyMMNfdisBBBB",
"BBBsdffnbb008864O6800bbnfdisBBBBBBBsdffmvvttee32+3ettvvmfdisBBBBBBBsdffhgg**&&$# $&**gghfdisBBBBBBBsdffcxx11<<,>X,<11xxcfdisBBBBBBBsdffzll::;;-=.-;::llzfdisBBBBBBBsdffNMMyyrrwq@wryyMMNfdisBBBBBBBsdffkjj99775%o5799jjkfdisBBBBBBBsdffNMMyyrrwq@wryyMMNfdisBBBB",
"BBBsdfnnb0008864O6800bbnffdsBBBBBBBsdfmmvtttee32+3ettvvmffdsBBBBBBBsdfhhg***&&$# $&**gghffdsBBBBBBBsdfccx111<<,>X,<11xxcffdsBBBBBBBsdfzzl:::;;-=.-;::llzffdsBBBBBBBsdfNNMyyyrrwq@wryyMMNffdsBBBBBBBsdfkkj999775%o5799jjkffdsBBBBBBBsdfNNMyyyrrwq@wryyMMNffdsBBBB",
"BBBsdfnbb000886OO4800bbnnfdsBBBBBBBsdfmvvtttee3++2ettvvmmfdsBBBBBBBsdfhgg***&&$  #&**gghhfdsBBBBBBBsdfcxx111<<,XX><11xxccfdsBBBBBBBsdfzll:::;;-..=;::llzzfdsBBBBBBBsdfNMMyyyrrw@@qryyMMNNfdsBBBBBBBsdfkjj999775oo%799jjkkfdsBBBBBBBsdfNMMyyyrrw@@qryyMMNNfdsBBBB",
"BBBsdfnbb0088664O6800bbnnfdsBBBBBBBsdfmvvttee332+3ettvvmmfdsBBBBBBBsdfhgg**&&$$# $&**gghhfdsBBBBBBBsdfcxx11<<,,>X,<11xxccfdsBBBBBBBsdfzll::;;--=.-;::llzzfdsBBBBBBBsdfNMMyyrrwwq@wryyMMNNfdsBBBBBBBsdfkjj997755%o5799jjkkfdsBBBBBBBsdfNMMyyrrwwq@wryyMMNNfdsBBBB",
"BBBsdfnbb008864OO6800bbnnfdsBBBBBBBsdfmvvttee32++3ettvvmmfdsBBBBBBBsdfhgg**&&$#  $&**gghhfdsBBBBBBBsdfcxx11<<,>XX,<11xxccfdsBBBBBBBsdfzll::;;-=..-;::llzzfdsBBBBBBBsdfNMMyyrrwq@@wryyMMNNfdsBBBBBBBsdfkjj99775%oo5799jjkkfdsBBBBBBBsdfNMMyyrrwq@@wryyMMNNfdsBBBB",
"BBBsdfnbb008864O46800bbnnfdsBBBBBBBsdfmvvttee32+23ettvvmmfdsBBBBBBBsdfhgg**&&$# #$&**gghhfdsBBBBBBBsdfcxx11<<,>X>,<11xxccfdsBBBBBBBsdfzll::;;-=.=-;::llzzfdsBBBBBBBsdfNMMyyrrwq@qwryyMMNNfdsBBBBBBBsdfkjj99775%o%5799jjkkfdsBBBBBBBsdfNMMyyrrwq@qwryyMMNNfdsBBBB",
"BBBsdffnbb08866468800bbnffdsBBBBBBBsdffmvvtee3323eettvvmffdsBBBBBBBsdffhgg*&&$$#$&&**gghffdsBBBBBBBsdffcxx1<<,,>,<<11xxcffdsBBBBBBBsdffzll:;;--=-;;::llzffdsBBBBBBBsdffNMMyrrwwqwrryyMMNffdsBBBBBBBsdffkjj97755%57799jjkffdsBBBBBBBsdffNMMyrrwwqwrryyMMNffdsBBBB",
"BBBsidfnbb0088666800bbbnfdisBBBBBBBsidfmvvttee333ettvvvmfdisBBBBBBBsidfhgg**&&$$$&**ggghfdisBBBBBBBsidfcxx11<<,,,<11xxxcfdisBBBBBBBsidfzll::;;---;::lllzfdisBBBBBBBsidfNMMyyrrwwwryyMMMNfdisBBBBBBBsidfkjj9977555799jjjkfdisBBBBBBBsidfNMMyyrrwwwryyMMMNfdisBBBB",
"BBBsidfnbb0088668800bbnnfdisBBBBBBBsidfmvvttee33eettvvmmfdisBBBBBBBsidfhgg**&&$$&&**gghhfdisBBBBBBBsidfcxx11<<,,<<11xxccfdisBBBBBBBsidfzll::;;--;;::llzzfdisBBBBBBBsidfNMMyyrrwwrryyMMNNfdisBBBBBBBsidfkjj9977557799jjkkfdisBBBBBBBsidfNMMyyrrwwrryyMMNNfdisBBBB",
"BBBsidfnnb000888800bbnnffdisBBBBBBBsidfmmvttteeeettvvmmffdisBBBBBBBsidfhhg***&&&&**gghhffdisBBBBBBBsidfccx111<<<<11xxccffdisBBBBBBBsidfzzl:::;;;;::llzzffdisBBBBBBBsidfNNMyyyrrrryyMMNNffdisBBBBBBBsidfkkj999777799jjkkffdisBBBBBBBsidfNNMyyyrrrryyMMNNffdisBBBB",
"BBBsidffnbb00888000bbnffdaisBBBBBBBsidffmvvtteeetttvvmffdaisBBBBBBBsidffhgg**&&&***gghffdaisBBBBBBBsidffcxx11<<<111xxcffdaisBBBBBBBsidffzll::;;;:::llzffdaisBBBBBBBsidffNMMyyrrryyyMMNffdaisBBBBBBBsidffkjj99777999jjkffdaisBBBBBBBsidffNMMyyrrryyyMMNffdaisBBBB",
"BBBsipdfnbb00080000bnnfdapisBBBBBBBsipdfmvvtttettttvmmfdapisBBBBBBBsipdfhgg***&****ghhfdapisBBBBBBBsipdfcxx111<1111xccfdapisBBBBBBBsipdfzll:::;::::lzzfdapisBBBBBBBsipdfNMMyyyryyyyMNNfdapisBBBBBBBsipdfkjj99979999jkkfdapisBBBBBBBsipdfNMMyyyryyyyMNNfdapisBBBB",
"BBdsspdffnbb000000bbnnfdapssdBBBBBdsspdffmvvttttttvvmmfdapssdBBBBBdsspdffhgg******gghhfdapssdBBBBBdsspdffcxx111111xxccfdapssdBBBBBdsspdffzll::::::llzzfdapssdBBBBBdsspdffNMMyyyyyyMMNNfdapssdBBBBBdsspdffkjj999999jjkkfdapssdBBBBBdsspdffNMMyyyyyyMMNNfdapssdBBB",
"BBdsspadffnbbb000bbnnffdapssdBBBBBdsspadffmvvvtttvvmmffdapssdBBBBBdsspadffhggg***gghhffdapssdBBBBBdsspadffcxxx111xxccffdapssdBBBBBdsspadffzlll:::llzzffdapssdBBBBBdsspadffNMMMyyyMMNNffdapssdBBBBBdsspadffkjjj999jjkkffdapssdBBBBBdsspadffNMMMyyyMMNNffdapssdBBB",
"BBdsuspadffnbbb0bbbnnfdapsusdBBBBBdsuspadffmvvvtvvvmmfdapsusdBBBBBdsuspadffhggg*ggghhfdapsusdBBBBBdsuspadffcxxx1xxxccfdapsusdBBBBBdsuspadffzlll:lllzzfdapsusdBBBBBdsuspadffNMMMyMMMNNfdapsusdBBBBBdsuspadffkjjj9jjjkkfdapsusdBBBBBdsuspadffNMMMyMMMNNfdapsusdBBB",
"BBdsuisppdffnbbbbbnnffdpsiusdBBBBBdsuisppdffmvvvvvmmffdpsiusdBBBBBdsuisppdffhggggghhffdpsiusdBBBBBdsuisppdffcxxxxxccffdpsiusdBBBBBdsuisppdffzlllllzzffdpsiusdBBBBBdsuisppdffNMMMMMNNffdpsiusdBBBBBdsuisppdffkjjjjjkkffdpsiusdBBBBBdsuisppdffNMMMMMNNffdpsiusdBBB",
"BBasuusiiidffnnbbnfffdiisuusaBBBBBasuusiiidffmmvvmfffdiisuusaBBBBBasuusiiidffhhgghfffdiisuusaBBBBBasuusiiidffccxxcfffdiisuusaBBBBBasuusiiidffzzllzfffdiisuusaBBBBBasuusiiidffNNMMNfffdiisuusaBBBBBasuusiiidffkkjjkfffdiisuusaBBBBBasuusiiidffNNMMNfffdiisuusaBBB",
"BBasssssssssfffffffsssssssssaBBBBBasssssssssfffffffsssssssssaBBBBBasssssssssfffffffsssssssssaBBBBBasssssssssfffffffsssssssssaBBBBBasssssssssfffffffsssssssssaBBBBBasssssssssfffffffsssssssssaBBBBBasssssssssfffffffsssssssssaBBBBBasssssssssfffffffsssssssssaBBB"
};
