/* XPM */
static char *portal5_spritesheet[] = {
/* columns rows colors chars-per-pixel */
"224 32 50 1 ",
"  c #3D1D1D",
". c #203D1D",
"X c #3D3B1D",
"o c #3D1D31",
"O c #341D3D",
"+ c #1D203D",
"@ c #1D3D3B",
"# c #4E2323",
"$ c #5B2929",
"% c #4E233E",
"& c #682F2F",
"* c #793737",
"= c #284E23",
"- c #2E5B29",
"; c #35682F",
": c #377937",
"> c #4C4E23",
", c #5B5829",
"< c #65682F",
"1 c #797637",
"2 c #232C4E",
"3 c #29345B",
"4 c #42234E",
"5 c #5B2949",
"6 c #4D295B",
"7 c #682F53",
"8 c #582F68",
"9 c #793768",
"0 c #673779",
"q c #234C4E",
"w c #295B58",
"e c #2F4168",
"r c #2F5F68",
"t c #374579",
"y c #376F79",
"u c #864242",
"i c #934848",
"p c #864266",
"a c #93486F",
"s c #428642",
"d c #489348",
"f c #828642",
"g c #938F48",
"h c #425086",
"j c #734286",
"k c #7E4893",
"l c #486093",
"z c #428286",
"x c #489387",
"c c None",
/* pixels */
"cccccccccckcckkkkccccccccccccccccccccccccclccllllcccccccccccccccccccccccccicciiiicccccccccccccccccccccccccgccggggcccccccccccccccccccccccccdccddddcccccccccccccccccccccccccxccxxxxcccccccccccccccccccccccccaccaaaaccccccccccccccc",
"cccccccccccckkjjkkkcccckccccccccccccccccccccllhhlllcccclcccccccccccccccccccciiuuiiicccciccccccccccccccccccccggffgggccccgccccccccccccccccccccddssdddccccdccccccccccccccccccccxxzzxxxccccxccccccccccccccccccccaappaaaccccacccccccc",
"cccccckkccckkjjjjjkkkcckkcccccccccccccllcccllhhhhhlllccllccccccccccccciiccciiuuuuuiiicciicccccccccccccggcccggfffffgggccggcccccccccccccddcccddsssssdddccddcccccccccccccxxcccxxzzzzzxxxccxxcccccccccccccaacccaapppppaaaccaaccccccc",
"ccccckjccckkjj000jjjkkccjkccccccccccclhcccllhhttthhhllcchlccccccccccciuccciiuu***uuuiiccuicccccccccccgfcccggff111fffggccfgcccccccccccdscccddss:::sssddccsdcccccccccccxzcccxxzzyyyzzzxxcczxcccccccccccapcccaapp999pppaaccpacccccc",
"ccccckccckkjj08000jjjkkccjkcccccccccclcccllhhtettthhhllcchlcccccccccciccciiuu*&***uuuiiccuiccccccccccgcccggff1<111fffggccfgccccccccccdcccddss:;:::sssddccsdccccccccccxcccxxzzyryyyzzzxxcczxccccccccccacccaapp97999pppaaccpaccccc",
"cccckjcckkjj08880000jjkkcckcckcccccclhccllhhteeetttthhllcclcclcccccciucciiuu*&&&****uuiiccicciccccccgfccggff1<<<1111ffggccgccgccccccdsccddss:;;;::::ssddccdccdccccccxzccxxzzyrrryyyyzzxxccxccxccccccapccaapp97779999ppaaccaccacc",
"ccccjcckkjj0088888000jjkkcjccccccccchccllhhtteeeeettthhllchcccccccccucciiuu**&&&&&***uuiicucccccccccfccggff11<<<<<111ffggcfcccccccccsccddss::;;;;;:::ssddcsccccccccczccxxzzyyrrrrryyyzzxxczcccccccccpccaapp9977777999ppaacpccccc",
"ccccjckkjj008886888800jjkcckcccccccchcllhhtteee3eeeetthhlcclccccccccuciiuu**&&&$&&&&**uuicciccccccccfcggff11<<<,<<<<11ffgccgccccccccscddss::;;;-;;;;::ssdccdcccccccczcxxzzyyrrrwrrrryyzzxccxccccccccpcaapp997775777799ppaccacccc",
"cccccckjj0088866668880jjkkcccccccccccclhhtteee3333eeethhllcccccccccccciuu**&&&$$$$&&&*uuiiccccccccccccgff11<<<,,,,<<<1ffggccccccccccccdss::;;;----;;;:ssddccccccccccccxzzyyrrrwwwwrrryzzxxccccccccccccapp9977755557779ppaacccccc",
"cckccckjj00886666668800jkkcccccccclccclhhttee333333eetthllcccccccciccciuu**&&$$$$$$&&**uiiccccccccgcccgff11<<,,,,,,<<11fggccccccccdcccdss::;;------;;::sddccccccccxcccxzzyyrrwwwwwwrryyzxxccccccccacccapp99775555557799paacccccc",
"cckccckjj08866644668800jjkcccccccclccclhhtee3332233eetthhlcccccccciccciuu*&&$$$##$$&&**uuiccccccccgcccgff1<<,,,>>,,<<11ffgccccccccdcccdss:;;---==--;;::ssdccccccccxcccxzzyrrwwwqqwwrryyzzxccccccccacccapp977555%%557799ppacccccc",
"ccccccjj0088664O4468800jjkcckccccccccchhttee332+223eetthhlcclcccccccccuu**&&$$# ##$&&**uuiccicccccccccff11<<,,>X>>,<<11ffgccgcccccccccss::;;--=.==-;;::ssdccdccccccccczzyyrrwwq@qqwrryyzzxccxcccccccccpp997755%o%%57799ppaccaccc",
"ccckckjj0086644OO4688800jkcckcccccclclhhtte3322++23eeetthlcclcccccciciuu**&$$##  #$&&&**uicciccccccgcgff11<,,>>XX>,<<<11fgccgccccccdcdss::;--==..=-;;;::sdccdccccccxcxzzyyrwwqq@@qwrrryyzxccxccccccacapp99755%%oo%577799paccaccc",
"cckjckjj088664OOO4668800jkkckccccclhclhhtee332+++233eetthllclccccciuciuu*&&$$#   #$$&&**uiicicccccgfcgff1<<,,>XXX>,,<<11fggcgcccccdscdss:;;--=...=--;;::sddcdcccccxzcxzzyrrwwq@@@qwwrryyzxxcxcccccapcapp97755%ooo%557799paacaccc",
"cckccjj0088644OO44468800jjkccccccclcchhttee322++2223eetthhlccccccciccuu**&&$##  ###$&&**uuicccccccgccff11<<,>>XX>>>,<<11ffgcccccccdccss::;;-==..===-;;::ssdcccccccxcczzyyrrwqq@@qqqwrryyzzxcccccccaccpp99775%%oo%%%57799ppaccccc",
"ccjckjj0088644OOO4468800jjkccccccchclhhttee322+++223eetthhlcccccccuciuu**&&$##   ##$&&**uuicccccccfcgff11<<,>>XXX>>,<<11ffgcccccccscdss::;;-==...==-;;::ssdccccccczcxzzyyrrwqq@@@qqwrryyzzxcccccccpcapp99775%%ooo%%57799ppaccccc",
"ckcckjj0088664OOO4468800jjkcccccclcclhhttee332+++223eetthhlccccccicciuu**&&$$#   ##$&&**uuiccccccgccgff11<<,,>XXX>>,<<11ffgccccccdccdss::;;--=...==-;;::ssdccccccxccxzzyyrrwwq@@@qqwrryyzzxccccccaccapp997755%ooo%%57799ppaccccc",
"cccccjj0088664OOO4668000jjkcccccccccchhttee332+++233ettthhlccccccccccuu**&&$$#   #$$&***uuiccccccccccff11<<,,>XXX>,,<111ffgccccccccccss::;;--=...=--;:::ssdcccccccccczzyyrrwwq@@@qwwryyyzzxccccccccccpp997755%ooo%557999ppaccccc",
"ccccckj000866444O4668000jjkcccccccccclhttte33222+233ettthhlcccccccccciu***&$$### #$$&***uuiccccccccccgf111<,,>>>X>,,<111ffgccccccccccds:::;--===.=--;:::ssdccccccccccxzyyyrwwqqq@qwwryyyzzxccccccccccap999755%%%o%557999ppaccccc",
"cckcckj00088664444668000jkkcckcccclcclhtttee33222233ettthllcclccccicciu***&&$$####$$&***uiicciccccgccgf111<<,,>>>>,,<111fggccgccccdccds:::;;--====--;:::sddccdccccxccxzyyyrrwwqqqqwwryyyzxxccxccccaccap9997755%%%%557999paaccacc",
"ccjkckjj008866644668800jjkkccccccchlclhhttee3332233eetthhllcccccccuiciuu**&&$$$##$$&&**uuiicccccccfgcgff11<<,,,>>,,<<11ffggcccccccsdcdss::;;---==--;;::ssddccccccczxcxzzyyrrwwwqqwwrryyzzxxcccccccpacapp9977555%%557799ppaaccccc",
"ccccckjjj0886666666800jjjkccccccccccclhhhtee3333333etthhhlccccccccccciuuu*&&$$$$$$$&**uuuicccccccccccgfff1<<,,,,,,,<11fffgcccccccccccdsss:;;-------;::sssdcccccccccccxzzzyrrwwwwwwwryyzzzxcccccccccccappp9775555555799pppacccccc",
"cccccckjj008866666880jjjkkcckccccccccclhhttee33333eethhhllcclccccccccciuu**&&$$$$$&&*uuuiiccicccccccccgff11<<,,,,,<<1fffggccgcccccccccdss::;;-----;;:sssddccdcccccccccxzzyyrrwwwwwrryzzzxxccxcccccccccapp997755555779pppaaccaccc",
"cccccckkjj00888688880jjkkcckccccccccccllhhtteee3eeeethhllcclcccccccccciiuu**&&&$&&&&*uuiicciccccccccccggff11<<<,<<<<1ffggccgccccccccccddss::;;;-;;;;:ssddccdccccccccccxxzzyyrrrwrrrryzzxxccxccccccccccaapp99777577779ppaaccacccc",
"ccckccckjj00888888000jkkccckccccccclccclhhtteeeeeettthllccclccccccciccciuu**&&&&&&***uiicccicccccccgcccgff11<<<<<<111fggcccgcccccccdcccdss::;;;;;;:::sddcccdcccccccxcccxzzyyrrrrrryyyzxxcccxcccccccacccapp99777777999paacccacccc",
"cccckcckkj000088000jjjkccckjcccccccclccllhtttteettthhhlccclhccccccccicciiu****&&***uuuiccciuccccccccgccggf1111<<111fffgcccgfccccccccdccdds::::;;:::sssdcccdsccccccccxccxxzyyyyrryyyzzzxcccxzccccccccaccaap999977999pppacccapcccc",
"cccckcckkjj00000000jjjkcccjccccccccclccllhhtttttttthhhlccchcccccccccicciiuu********uuuicccucccccccccgccggff11111111fffgcccfcccccccccdccddss::::::::sssdcccscccccccccxccxxzzyyyyyyyyzzzxccczcccccccccaccaapp99999999pppacccpccccc",
"cccckccckjjjj0000jjjkkkcckjccccccccclccclhhhhtttthhhlllcclhccccccccciccciuuuu****uuuiiicciucccccccccgcccgffff1111fffgggccgfcccccccccdcccdssss::::sssdddccdscccccccccxcccxzzzzyyyyzzzxxxccxzcccccccccacccapppp9999pppaaaccapccccc",
"ccccjcccckjjj0000jjjkcccckcccccccccchcccclhhhtttthhhlcccclccccccccccucccciuuu****uuuicccciccccccccccfccccgfff1111fffgccccgccccccccccsccccdsss::::sssdccccdcccccccccczccccxzzzyyyyzzzxccccxccccccccccpccccappp9999pppaccccacccccc",
"ccccjkccckjjjj0jjjjkkccccccccccccccchlccclhhhhthhhhllcccccccccccccccuiccciuuuu*uuuuiicccccccccccccccfgcccgffff1ffffggcccccccccccccccsdcccdssss:ssssddccccccccccccccczxcccxzzzzyzzzzxxcccccccccccccccpacccapppp9ppppaaccccccccccc",
"cccccjkccckkjjjjkkccccccccccccccccccchlcccllhhhhllcccccccccccccccccccuiccciiuuuuiicccccccccccccccccccfgcccggffffggcccccccccccccccccccsdcccddssssddccccccccccccccccccczxcccxxzzzzxxcccccccccccccccccccpacccaappppaacccccccccccccc",
"cccccccccccckkkkcccckcccccccccccccccccccccccllllcccclccccccccccccccccccccccciiiiccccicccccccccccccccccccccccggggccccgcccccccccccccccccccccccddddccccdcccccccccccccccccccccccxxxxccccxcccccccccccccccccccccccaaaaccccaccccccccccc"
};
