/* XPM */
static char *portal4_spritesheet[] = {
/* columns rows colors chars-per-pixel */
"224 32 53 1 ",
"  c #3D1D1D",
". c #203D1D",
"X c #3D3B1D",
"o c #3D1D31",
"O c #341D3D",
"+ c #1D203D",
"@ c #1D3D3B",
"# c #4E2323",
"$ c #5B2929",
"% c #4E233E",
"& c #682F2F",
"* c #793737",
"= c #284E23",
"- c #2E5B29",
"; c #35682F",
": c #377937",
"> c #4C4E23",
", c #5B5829",
"< c #65682F",
"1 c #797637",
"2 c #232C4E",
"3 c #29345B",
"4 c #42234E",
"5 c #5B2949",
"6 c #4D295B",
"7 c #682F53",
"8 c #582F68",
"9 c #793768",
"0 c #673779",
"q c #234C4E",
"w c #295B58",
"e c #2F4168",
"r c #2F5F68",
"t c #374579",
"y c #376F79",
"u c #494949",
"i c gray32",
"p c #565656",
"a c #5F5F5F",
"s c #864242",
"d c #934848",
"f c #864266",
"g c #93486F",
"h c #428642",
"j c #489348",
"k c #828642",
"l c #938F48",
"z c #425086",
"x c #734286",
"c c #7E4893",
"v c #486093",
"b c #428286",
"n c #489387",
/* pixels */
"iiuuuuuiiiiiiiiiiiiiiiiiiuuuuuiiiiuuuuuiiiiiiiiiiiiiiiiiiuuuuuiiiiuuuuuiiiiiiiiiiiiiiiiiiuuuuuiiiiuuuuuiiiiiiiiiiiiiiiiiiuuuuuiiiiuuuuuiiiiiiiiiiiiiiiiiiuuuuuiiiiuuuuuiiiiiiiiiiiiiiiiiiuuuuuiiiiuuuuuiiiiiiiiiiiiiiiiiiuuuuuii",
"ippiuppaaaaaaaaaaaaaaaaaappuippiippiuppaaaaaaaaaaaaaaaaaappuippiippiuppaaaaaaaaaaaaaaaaaappuippiippiuppaaaaaaaaaaaaaaaaaappuippiippiuppaaaaaaaaaaaaaaaaaappuippiippiuppaaaaaaaaaaaaaaaaaappuippiippiuppaaaaaaaaaaaaaaaaaappuippi",
"upai0xxccxxxxxxxxxxxxxxxccx0iapuupaitzzvvzzzzzzzzzzzzzzzvvztiapuupai*ssddsssssssssssssssdds*iapuupai1kkllkkkkkkkkkkkkkkkllk1iapuupai:hhjjhhhhhhhhhhhhhhhjjh:iapuupaiybbnnbbbbbbbbbbbbbbbnnbyiapuupai9ffggfffffffffffffffggf9iapu",
"uii0xcccxxxxx0000xxxxxxxxccx0iiuuiitzvvvzzzzzttttzzzzzzzzvvztiiuuii*sdddsssss****ssssssssdds*iiuuii1klllkkkkk1111kkkkkkkkllk1iiuuii:hjjjhhhhh::::hhhhhhhhjjh:iiuuiiybnnnbbbbbyyyybbbbbbbbnnbyiiuuii9fgggfffff9999ffffffffggf9iiu",
"uu0xccxxx0x0008800000xxxxxccx0uuuutzvvzzztzttteetttttzzzzzvvztuuuu*sddsss*s***&&*****sssssdds*uuuu1kllkkk1k111<<11111kkkkkllk1uuuu:hjjhhh:h:::;;:::::hhhhhjjh:uuuuybnnbbbybyyyrryyyyybbbbbnnbyuuuu9fggfff9f9997799999fffffggf9uu",
"upxccxxx000088888888000xxxxccxpuupzvvzzztttteeeeeeeetttzzzzvvzpuupsddsss****&&&&&&&&***ssssddspuupkllkkk1111<<<<<<<<111kkkkllkpuuphjjhhh::::;;;;;;;;:::hhhhjjhpuupbnnbbbyyyyrrrrrrrryyybbbbnnbpuupfggfff999977777777999ffffggfpu",
"upxccxx0080888688668800xxxxxcxpuupzvvzztteteee3ee33eettzzzzzvzpuupsddss**&*&&&$&&$$&&**sssssdspuupkllkk11<1<<<,<<,,<<11kkkkklkpuuphjjhh::;:;;;-;;--;;::hhhhhjhpuupbnnbbyyryrrrwrrwwrryybbbbbnbpuupfggff9979777577557799fffffgfpu",
"iaxcxxx08888866666668800xxxxccaiiazvzzzteeeee3333333eettzzzzvvaiiasdsss*&&&&&$$$$$$$&&**ssssddaiiaklkkk1<<<<<,,,,,,,<<11kkkkllaiiahjhhh:;;;;;-------;;::hhhhjjaiiabnbbbyrrrrrwwwwwwwrryybbbbnnaiiafgfff97777755555557799ffffggai",
"iaxcxx008886666666668800xxxxccaiiazvzztteee333333333eettzzzzvvaiiasdss**&&&$$$$$$$$$&&**ssssddaiiaklkk11<<<,,,,,,,,,<<11kkkkllaiiahjhh::;;;---------;;::hhhhjjaiiabnbbyyrrrwwwwwwwwwrryybbbbnnaiiafgff997775555555557799ffffggai",
"iaccx00088866646446668800xxxccaiiavvzttteee3332322333eettzzzvvaiiadds***&&&$$$#$##$$$&&**sssddaiiallk111<<<,,,>,>>,,,<<11kkkllaiiajjh:::;;;---=-==---;;::hhhjjaiiannbyyyrrrwwwqwqqwwwrryybbbnnaiiaggf999777555%5%%5557799fffggai",
"iaccx00888666444444468880xxxccaiiavvztteee33322222223eeetzzzvvaiiadds**&&&$$$#######$&&&*sssddaiiallk11<<<,,,>>>>>>>,<<<1kkkllaiiajjh::;;;---=======-;;;:hhhjjaiiannbyyrrrwwwqqqqqqqwrrrybbbnnaiiaggf99777555%%%%%%%57779fffggai",
"iacxx08888664444444666880xxxxcaiiavzzteeee332222222333eetzzzzvaiiadss*&&&&$$#######$$$&&*ssssdaiialkk1<<<<,,>>>>>>>,,,<<1kkkklaiiajhh:;;;;--=======---;;:hhhhjaiianbbyrrrrwwqqqqqqqwwwrrybbbbnaiiagff9777755%%%%%%%555779ffffgai",
"iacx00888664444OOO44668800xxxcaiiavztteee332222+++2233eettzzzvaiiads**&&&$$####   ##$$&&**sssdaiialk11<<<,,>>>>XXX>>,,<<11kkklaiiajh::;;;--====...==--;;::hhhjaiianbyyrrrwwqqqq@@@qqwwrryybbbnaiiagf9977755%%%%ooo%%557799fffgai",
"iacx0088866644OOOO44666800xxxcaiiavztteee33322++++22333ettzzzvaiiads**&&&$$$##    ##$$$&**sssdaiialk11<<<,,,>>XXXX>>,,,<11kkklaiiajh::;;;---==....==---;::hhhjaiianbyyrrrwwwqq@@@@qqwwwryybbbnaiiagf99777555%%oooo%%555799fffgai",
"iacx0088866644OOOOO4666880xxxcaiiavztteee33322+++++2333eetzzzvaiiads**&&&$$$##     #$$$&&*sssdaiialk11<<<,,,>>XXXXX>,,,<<1kkklaiiajh::;;;---==.....=---;;:hhhjaiianbyyrrrwwwqq@@@@@qwwwrrybbbnaiiagf99777555%%ooooo%555779fffgai",
"iacx00088664444OOO444668800xxcaiiavztttee332222+++22233eettzzvaiiads***&&$$####   ###$$&&**ssdaiialk111<<,,>>>>XXX>>>,,<<11kklaiiajh:::;;--====...===--;;::hhjaiianbyyyrrwwqqqq@@@qqqwwrryybbnaiiagf9997755%%%%ooo%%%557799ffgai",
"iacx00088866444OOOO44688800xxcaiiavzttteee33222++++223eeettzzvaiiads***&&&$$###    ##$&&&**ssdaiialk111<<<,,>>>XXXX>>,<<<11kklaiiajh:::;;;--===....==-;;;::hhjaiianbyyyrrrwwqqq@@@@qqwrrryybbnaiiagf99977755%%%oooo%%577799ffgai",
"iacxx000886644OOOOO44688800xxcaiiavzztttee3322+++++223eeettzzvaiiadss***&&$$##     ##$&&&**ssdaiialkk111<<,,>>XXXXX>>,<<<11kklaiiajhh:::;;--==.....==-;;;::hhjaiianbbyyyrrwwqq@@@@@qqwrrryybbnaiiagff9997755%%ooooo%%577799ffgai",
"iacxx00088866444OO444688800xxcaiiavzzttteee33222++2223eeettzzvaiiadss***&&&$$###  ###$&&&**ssdaiialkk111<<<,,>>>XX>>>,<<<11kklaiiajhh:::;;;--===..===-;;;::hhjaiianbbyyyrrrwwqqq@@qqqwrrryybbnaiiagff99977755%%%oo%%%577799ffgai",
"iaccxxx08886644444446688800xccaiiavvzzzteee33222222233eeettzvvaiiaddsss*&&&$$#######$$&&&**sddaiiallkkk1<<<,,>>>>>>>,,<<<11kllaiiajjhhh:;;;--=======--;;;::hjjaiiannbbbyrrrwwqqqqqqqwwrrryybnnaiiaggfff977755%%%%%%%5577799fggai",
"iaccxxx00886664444466688800xccaiiavvzzzttee33322222333eeettzvvaiiaddsss**&&$$$#####$$$&&&**sddaiiallkkk11<<,,,>>>>>,,,<<<11kllaiiajjhhh::;;---=====---;;;::hjjaiiannbbbyyrrwwwqqqqqwwwrrryybnnaiiaggfff9977555%%%%%55577799fggai",
"iaccxxx0088666464666688800xxccaiiavvzzzttee3332323333eeettzzvvaiiaddsss**&&$$$#$#$$$$&&&**ssddaiiallkkk11<<,,,>,>,,,,<<<11kkllaiiajjhhh::;;---=-=----;;;::hhjjaiiannbbbyyrrwwwqwqwwwwrrryybbnnaiiaggfff9977555%5%555577799ffggai",
"iacccxxx088866666666888000xxcxaiiavvvzzzteee33333333eeetttzzvzaiiadddsss*&&&$$$$$$$$&&&***ssdsaiialllkkk1<<<,,,,,,,,<<<111kklkaiiajjjhhh:;;;--------;;;:::hhjhaiiannnbbbyrrrwwwwwwwwrrryyybbnbaiiagggfff977755555555777999ffgfai",
"iaxccxxx00886668866888800xxccxaiiazvvzzzttee333ee33eeeettzzvvzaiiasddsss**&&$$$&&$$&&&&**ssddsaiiakllkkk11<<,,,<<,,<<<<11kkllkaiiahjjhhh::;;---;;--;;;;::hhjjhaiiabnnbbbyyrrwwwrrwwrrrryybbnnbaiiafggfff99775557755777799ffggfai",
"iaxcccxxx088868888888000xxxccxaiiazvvvzzzteee3eeeeeeetttzzzvvzaiiasdddsss*&&&$&&&&&&&***sssddsaiiaklllkkk1<<<,<<<<<<<111kkkllkaiiahjjjhhh:;;;-;;;;;;;:::hhhjjhaiiabnnnbbbyrrrwrrrrrrryyybbbnnbaiiafgggfff977757777777999fffggfai",
"upxxccxxx0888888888800xxxxcccxpuupzzvvzzzteeeeeeeeeettzzzzvvvzpuupssddsss*&&&&&&&&&&**ssssdddspuupkkllkkk1<<<<<<<<<<11kkkklllkpuuphhjjhhh:;;;;;;;;;;::hhhhjjjhpuupbbnnbbbyrrrrrrrrrryybbbbnnnbpuupffggfff9777777777799ffffgggfpu",
"up0xccxxx008088000080xxxxxccx0puuptzvvzzztteteettttetzzzzzvvztpuup*sddsss**&*&&****&*sssssdds*puup1kllkkk11<1<<1111<1kkkkkllk1puup:hjjhhh::;:;;::::;:hhhhhjjh:puupybnnbbbyyryrryyyyrybbbbbnnbypuup9fggfff997977999979fffffggf9pu",
"uu0xccxxx000000000000xxxxxccx0uuuutzvvzzzttttttttttttzzzzzvvztuuuu*sddsss************sssssdds*uuuu1kllkkk111111111111kkkkkllk1uuuu:hjjhhh::::::::::::hhhhhjjh:uuuuybnnbbbyyyyyyyyyyyybbbbbnnbyuuuu9fggfff999999999999fffffggf9uu",
"uii0xccxxxx0x000xx00xxxccccx0iiuuiitzvvzzzztztttzzttzzzvvvvztiiuuii*sddssss*s***ss**sssdddds*iiuuii1kllkkkk1k111kk11kkkllllk1iiuuii:hjjhhhh:h:::hh::hhhjjjjh:iiuuiiybnnbbbbybyyybbyybbbnnnnbyiiuuii9fggffff9f999ff99fffggggf9iiu",
"upai0xccxxxxxxxxxxxxxxccccx0iapuupaitzvvzzzzzzzzzzzzzzvvvvztiapuupai*sddssssssssssssssdddds*iapuupai1kllkkkkkkkkkkkkkkllllk1iapuupai:hjjhhhhhhhhhhhhhhjjjjh:iapuupaiybnnbbbbbbbbbbbbbbnnnnbyiapuupai9fggffffffffffffffggggf9iapu",
"ippiuppaaaaaaaaaaaaaaaaaappuippiippiuppaaaaaaaaaaaaaaaaaappuippiippiuppaaaaaaaaaaaaaaaaaappuippiippiuppaaaaaaaaaaaaaaaaaappuippiippiuppaaaaaaaaaaaaaaaaaappuippiippiuppaaaaaaaaaaaaaaaaaappuippiippiuppaaaaaaaaaaaaaaaaaappuippi",
"iiuuuuuiiiiiiiiiiiiiiiiiiuuuuuiiiiuuuuuiiiiiiiiiiiiiiiiiiuuuuuiiiiuuuuuiiiiiiiiiiiiiiiiiiuuuuuiiiiuuuuuiiiiiiiiiiiiiiiiiiuuuuuiiiiuuuuuiiiiiiiiiiiiiiiiiiuuuuuiiiiuuuuuiiiiiiiiiiiiiiiiiiuuuuuiiiiuuuuuiiiiiiiiiiiiiiiiiiuuuuuii"
};
