/* XPM */
static char *portal3_spritesheet[] = {
/* columns rows colors chars-per-pixel */
"224 32 54 1 ",
"  c #3D1D1D",
". c #203D1D",
"X c #3D3B1D",
"o c #3D1D31",
"O c #341D3D",
"+ c #1D203D",
"@ c #1D3D3B",
"# c #4E2323",
"$ c #5B2929",
"% c #4E233E",
"& c #682F2F",
"* c #793737",
"= c #284E23",
"- c #2E5B29",
"; c #35682F",
": c #377937",
"> c #4C4E23",
", c #5B5829",
"< c #65682F",
"1 c #797637",
"2 c #232C4E",
"3 c #29345B",
"4 c #42234E",
"5 c #5B2949",
"6 c #4D295B",
"7 c #682F53",
"8 c #582F68",
"9 c #793768",
"0 c #673779",
"q c #234C4E",
"w c #295B58",
"e c #2F4168",
"r c #2F5F68",
"t c #374579",
"y c #376F79",
"u c #494949",
"i c gray32",
"p c #565656",
"a c #5F5F5F",
"s c #864242",
"d c #934848",
"f c #864266",
"g c #93486F",
"h c #428642",
"j c #489348",
"k c #828642",
"l c #938F48",
"z c #425086",
"x c #734286",
"c c #7E4893",
"v c #486093",
"b c #428286",
"n c #489387",
"m c None",
/* pixels */
"mmmmmmmmmpiiiippppiiiipmmmmmmmmmmmmmmmmmmpiiiippppiiiipmmmmmmmmmmmmmmmmmmpiiiippppiiiipmmmmmmmmmmmmmmmmmmpiiiippppiiiipmmmmmmmmmmmmmmmmmmpiiiippppiiiipmmmmmmmmmmmmmmmmmmpiiiippppiiiipmmmmmmmmmmmmmmmmmmpiiiippppiiiipmmmmmmmmm",
"mmmmmmappuiiiiippiiiiiuppammmmmmmmmmmmappuiiiiippiiiiiuppammmmmmmmmmmmappuiiiiippiiiiiuppammmmmmmmmmmmappuiiiiippiiiiiuppammmmmmmmmmmmappuiiiiippiiiiiuppammmmmmmmmmmmappuiiiiippiiiiiuppammmmmmmmmmmmappuiiiiippiiiiiuppammmmmm",
"mmmmmapiuppaaccccccaappuipammmmmmmmmmapiuppaavvvvvvaappuipammmmmmmmmmapiuppaaddddddaappuipammmmmmmmmmapiuppaallllllaappuipammmmmmmmmmapiuppaajjjjjjaappuipammmmmmmmmmapiuppaannnnnnaappuipammmmmmmmmmapiuppaaggggggaappuipammmmm",
"mmmmapippccxxxxcccxxcccppipammmmmmmmapippvvzzzzvvvzzvvvppipammmmmmmmapippddssssdddssdddppipammmmmmmmapippllkkkklllkklllppipammmmmmmmapippjjhhhhjjjhhjjjppipammmmmmmmapippnnbbbbnnnbbnnnppipammmmmmmmapippggffffgggffgggppipammmm",
"mmmapipccxxxxxxxxxxxxxcccpipammmmmmapipvvzzzzzzzzzzzzzvvvpipammmmmmapipddsssssssssssssdddpipammmmmmapipllkkkkkkkkkkkkklllpipammmmmmapipjjhhhhhhhhhhhhhjjjpipammmmmmapipnnbbbbbbbbbbbbbnnnpipammmmmmapipggfffffffffffffgggpipammm",
"mmmaipccxx0x000xxxx0xxxxccpiammmmmmaipvvzztztttzzzztzzzzvvpiammmmmmaipddss*s***ssss*ssssddpiammmmmmaipllkk1k111kkkk1kkkkllpiammmmmmaipjjhh:h:::hhhh:hhhhjjpiammmmmmaipnnbbybyyybbbbybbbbnnpiammmmmmaipggff9f999ffff9ffffggpiammm",
"mmapupcxxx0000000x000xxxxcpupammmmapupvzzztttttttztttzzzzvpupammmmapupdsss*******s***ssssdpupammmmapuplkkk1111111k111kkkklpupammmmapupjhhh:::::::h:::hhhhjpupammmmapupnbbbyyyyyyybyyybbbbnpupammmmapupgfff9999999f999ffffgpupamm",
"mapupccxx0008880000000xxxccpupammapupvvzzttteeetttttttzzzvvpupammapupddss***&&&*******sssddpupammapupllkk111<<<1111111kkkllpupammapupjjhh:::;;;:::::::hhhjjpupammapupnnbbyyyrrryyyyyyybbbnnpupammapupggff9997779999999fffggpupam",
"mapupcxxx0088888808800xxxxcpupammapupvzzztteeeeeeteettzzzzvpupammapupdsss**&&&&&&*&&**ssssdpupammapuplkkk11<<<<<<1<<11kkkklpupammapupjhhh::;;;;;;:;;::hhhhjpupammapupnbbbyyrrrrrryrryybbbbnpupammapupgfff9977777797799ffffgpupam",
"maupccxxx08888868888800xxxxcpuammaupvvzzzteeeee3eeeeettzzzzvpuammaupddsss*&&&&&$&&&&&**ssssdpuammaupllkkk1<<<<<,<<<<<11kkkklpuammaupjjhhh:;;;;;-;;;;;::hhhhjpuammaupnnbbbyrrrrrwrrrrryybbbbnpuammaupggfff97777757777799ffffgpuam",
"maupcxxx008886666688800xxxxcpuammaupvzzztteee33333eeettzzzzvpuammaupdsss**&&&$$$$$&&&**ssssdpuammauplkkk11<<<,,,,,<<<11kkkklpuammaupjhhh::;;;-----;;;::hhhhjpuammaupnbbbyyrrrwwwwwrrryybbbbnpuammaupgfff997775555577799ffffgpuam",
"maupcxx00888866666688800xxxxpuammaupvzztteeee333333eeettzzzzpuammaupdss**&&&&$$$$$$&&&**sssspuammauplkk11<<<<,,,,,,<<<11kkkkpuammaupjhh::;;;;------;;;::hhhhpuammaupnbbyyrrrrwwwwwwrrryybbbbpuammaupgff99777755555577799ffffpuam",
"maupxxx008886646466888000xxxpuammaupzzztteee3323233eeetttzzzpuammaupsss**&&&$$#$#$$&&&***ssspuammaupkkk11<<<,,>,>,,<<<111kkkpuammauphhh::;;;--=-=--;;;:::hhhpuammaupbbbyyrrrwwqwqwwrrryyybbbpuammaupfff9977755%5%55777999fffpuam",
"maipxx0008866644446888000xxxpiammaipzztttee33322223eeetttzzzpiammaipss***&&$$$####$&&&***ssspiammaipkk111<<,,,>>>>,<<<111kkkpiammaiphh:::;;---====-;;;:::hhhpiammaipbbyyyrrwwwqqqqwrrryyybbbpiammaipff99977555%%%%5777999fffpiam",
"maipxx000886644OO46688800xxxpiammaipzztttee3322++233eeettzzzpiammaipss***&&$$##  #$$&&&**ssspiammaipkk111<<,,>>XX>,,<<<11kkkpiammaiphh:::;;--==..=--;;;::hhhpiammaipbbyyyrrwwqq@@qwwrrryybbbpiammaipff9997755%%oo%5577799fffpiam",
"maipxx00008864OOO46688800xxcpiammaipzzttttee32+++233eeettzzvpiammaipss****&&$#   #$$&&&**ssdpiammaipkk1111<<,>XXX>,,<<<11kklpiammaiphh::::;;-=...=--;;;::hhjpiammaipbbyyyyrrwq@@@qwwrrryybbnpiammaipff9999775%ooo%5577799ffgpiam",
"maipxx00088864OOOO466880xxxcpiammaipzzttteee32++++233eetzzzvpiammaipss***&&&$#    #$$&&*sssdpiammaipkk111<<<,>XXXX>,,<<1kkklpiammaiphh:::;;;-=....=--;;:hhhjpiammaipbbyyyrrrwq@@@@qwwrrybbbnpiammaipff9997775%oooo%55779fffgpiam",
"maipxx000886644OOO466880xxccpiammaipzztttee3322+++233eetzzvvpiammaipss***&&$$##   #$$&&*ssddpiammaipkk111<<,,>>XXX>,,<<1kkllpiammaiphh:::;;--==...=--;;:hhjjpiammaipbbyyyrrwwqq@@@qwwrrybbnnpiammaipff9997755%%ooo%55779ffggpiam",
"maipxx00888664OOOO466880xxccpiammaipzztteee332++++233eetzzvvpiammaipss**&&&$$#    #$$&&*ssddpiammaipkk11<<<,,>XXXX>,,<<1kkllpiammaiphh::;;;--=....=--;;:hhjjpiammaipbbyyrrrwwq@@@@qwwrrybbnnpiammaipff9977755%oooo%55779ffggpiam",
"maipxx00888664OOO44668800xccpiammaipzztteee332+++2233eettzvvpiammaipss**&&&$$#   ##$$&&**sddpiammaipkk11<<<,,>XXX>>,,<<11kllpiammaiphh::;;;--=...==--;;::hjjpiammaipbbyyrrrwwq@@@qqwwrryybnnpiammaipff9977755%ooo%%557799fggpiam",
"maipcxx08886664OO44688800xccpiammaipvzzteee3332++223eeettzvvpiammaipdss*&&&$$$#  ##$&&&**sddpiammaiplkk1<<<,,,>XX>>,<<<11kllpiammaipjhh:;;;---=..==-;;;::hjjpiammaipnbbyrrrwwwq@@qqwrrryybnnpiammaipgff9777555%oo%%577799fggpiam",
"maipcxx008886444446688800xxcpiammaipvzztteee32222233eeettzzvpiammaipdss**&&&$#####$$&&&**ssdpiammaiplkk11<<<,>>>>>,,<<<11kklpiammaipjhh::;;;-=====--;;;::hhjpiammaipnbbyyrrrwqqqqqwwrrryybbnpiammaipgff997775%%%%%5577799ffgpiam",
"maipcxx008886644466688000xxcpiammaipvzztteee33222333eetttzzvpiammaipdss**&&&$$###$$$&&***ssdpiammaiplkk11<<<,,>>>,,,<<111kklpiammaipjhh::;;;--===---;;:::hhjpiammaipnbbyyrrrwwqqqwwwrryyybbnpiammaipgff9977755%%%55577999ffgpiam",
"maipccx000886664666880000xxcpiammaipvvztttee3332333eettttzzvpiammaipdds***&&$$$#$$$&&****ssdpiammaipllk111<<,,,>,,,<<1111kklpiammaipjjh:::;;---=---;;::::hhjpiammaipnnbyyyrrwwwqwwwrryyyybbnpiammaipggf99977555%555779999ffgpiam",
"maipccx00088866666888000xxxxpiammaipvvzttteee33333eeetttzzzzpiammaipdds***&&&$$$$$&&&***sssspiammaipllk111<<<,,,,,<<<111kkkkpiammaipjjh:::;;;-----;;;:::hhhhpiammaipnnbyyyrrrwwwwwrrryyybbbbpiammaipggf99977755555777999ffffpiam",
"maipccxx008886668688000xxxxxpiammaipvvzztteee333e3eetttzzzzzpiammaipddss**&&&$$$&$&&***ssssspiammaipllkk11<<<,,,<,<<111kkkkkpiammaipjjhh::;;;---;-;;:::hhhhhpiammaipnnbbyyrrrwwwrwrryyybbbbbpiammaipggff997775557577999fffffpiam",
"mpupcxxxx00888688888000xxxxxpupmmpupvzzzztteee3eeeeetttzzzzzpupmmpupdssss**&&&$&&&&&***ssssspupmmpuplkkkk11<<<,<<<<<111kkkkkpupmmpupjhhhh::;;;-;;;;;:::hhhhhpupmmpupnbbbbyyrrrwrrrrryyybbbbbpupmmpupgffff99777577777999fffffpupm",
"mpupcxxxx0008888888000xxxxxcpupmmpupvzzzzttteeeeeeetttzzzzzvpupmmpupdssss***&&&&&&&***sssssdpupmmpuplkkkk111<<<<<<<111kkkkklpupmmpupjhhhh:::;;;;;;;:::hhhhhjpupmmpupnbbbbyyyrrrrrrryyybbbbbnpupmmpupgffff9997777777999fffffgpupm",
"mpupcxxxxx000888880000xxxxxcpupmmpupvzzzzzttteeeeettttzzzzzvpupmmpupdsssss***&&&&&****sssssdpupmmpuplkkkkk111<<<<<1111kkkkklpupmmpupjhhhhh:::;;;;;::::hhhhhjpupmmpupnbbbbbyyyrrrrryyyybbbbbnpupmmpupgfffff999777779999fffffgpupm",
"mpupccxxxx00000880000xxxxxccpupmmpupvvzzzzttttteettttzzzzzvvpupmmpupddssss*****&&****sssssddpupmmpupllkkkk11111<<1111kkkkkllpupmmpupjjhhhh:::::;;::::hhhhhjjpupmmpupnnbbbbyyyyyrryyyybbbbbnnpupmmpupggffff99999779999fffffggpupm",
"mpupccxxxx00x000000xxxxxxcccpupmmpupvvzzzzttzttttttzzzzzzvvvpupmmpupddssss**s******ssssssdddpupmmpupllkkkk11k111111kkkkkklllpupmmpupjjhhhh::h::::::hhhhhhjjjpupmmpupnnbbbbyybyyyyyybbbbbbnnnpupmmpupggffff99f999999ffffffgggpupm",
"mpupccccxxxxxxxx00xxxxxxccccpupmmpupvvvvzzzzzzzzttzzzzzzvvvvpupmmpupddddssssssss**ssssssddddpupmmpupllllkkkkkkkk11kkkkkkllllpupmmpupjjjjhhhhhhhh::hhhhhhjjjjpupmmpupnnnnbbbbbbbbyybbbbbbnnnnpupmmpupggggffffffff99ffffffggggpupm"
};
