/* XPM */
static char *portal2_spritesheet[] = {
/* columns rows colors chars-per-pixel */
"448 32 53 1 ",
"  c #3D1D1D",
". c #203D1D",
"X c #3D3B1D",
"o c #3D1D31",
"O c #341D3D",
"+ c #1D203D",
"@ c #1D3D3B",
"# c #4E2323",
"$ c #5B2929",
"% c #4E233E",
"& c #682F2F",
"* c #793737",
"= c #284E23",
"- c #2E5B29",
"; c #35682F",
": c #377937",
"> c #4C4E23",
", c #5B5829",
"< c #65682F",
"1 c #797637",
"2 c #232C4E",
"3 c #29345B",
"4 c #42234E",
"5 c #5B2949",
"6 c #4D295B",
"7 c #682F53",
"8 c #582F68",
"9 c #793768",
"0 c #673779",
"q c #234C4E",
"w c #295B58",
"e c #2F4168",
"r c #2F5F68",
"t c #374579",
"y c #376F79",
"u c gray32",
"i c #565656",
"p c #5F5F5F",
"a c #864242",
"s c #934848",
"d c #864266",
"f c #93486F",
"g c #428642",
"h c #489348",
"j c #828642",
"k c #938F48",
"l c #425086",
"z c #734286",
"x c #7E4893",
"c c #486093",
"v c #428286",
"b c #489387",
"n c None",
/* pixels */
"nnnnnnnnnnnnnnnnnnnnnnnnnnnnnnnnnnnnnnnnnnnnnnnnnnnnnnnnnnnnnnnnnnnnnnnnnnnnnnnnnnnnnnnnnnnnnnnnnnnnnnnnnnnnnnnnnnnnnnnnnnnnnnnnnnnnnnnnnnnnnnnnnnnnnnnnnnnnnnnnnnnnnnnnnnnnnnnnnnnnnnnnnnnnnnnnnnnnnnnnnnnnnnnnnnnnnnnnnnnnnnnnnnnnnnnnnnnnnnnnnnnnnnnnnnnnnnnnnnnnnnnnnnnnnnnnnnnnnnnnnnnnnnnnnnnnnnnnnnnnnnnnnnnnnnnnnnnnnnnnnnnnnnnnnnnnnnnnnnnnnnnnnnnnnnnnnnnnnnnnnnnnnnnnnnnnnnnnnnnnnnnnnnnnnnnnnnnnnnnnnnnnnnnnnnnnnnnnnnnnnnnnnnnnnnnnnnnnnnnnnnnnnnnn",
"nnnnnnnnnnnnnnnnnnnnnnnnnnnnnnnnnnnnnnnnnnnnnnnnnnnnnnnnnnnnnnnnnnnnnnnnnnnnnnnnnnnnnnnnnnnnnnnnnnnnnnnnnnnnnnnnnnnnnnnnnnnnnnnnnnnnnnnnnnnnnnnnnnnnnnnnnnnnnnnnnnnnnnnnnnnnnnnnnnnnnnnnnnnnnnnnnnnnnnnnnnnnnnnnnnnnnnnnnnnnnnnnnnnnnnnnnnnnnnnnnnnnnnnnnnnnnnnnnnnnnnnnnnnnnnnnnnnnnnnnnnnnnnnnnnnnnnnnnnnnnnnnnnnnnnnnnnnnnnnnnnnnnnnnnnnnnnnnnnnnnnnnnnnnnnnnnnnnnnnnnnnnnnnnnnnnnnnnnnnnnnnnnnnnnnnnnnnnnnnnnnnnnnnnnnnnnnnnnnnnnnnnnnnnnnnnnnnnnnnnnnnnnnnn",
"nnnnnnnnnnnnppppppppnnnnnnnnnnnnnnnnnnnnnnnnppppppppnnnnnnnnnnnnnnnnnnnnnnnnppppppppnnnnnnnnnnnnnnnnnnnnnnnnppppppppnnnnnnnnnnnnnnnnnnnnnnnnppppppppnnnnnnnnnnnnnnnnnnnnnnnnppppppppnnnnnnnnnnnnnnnnnnnnnnnnppppppppnnnnnnnnnnnnnnnnnnnnnnnnppppppppnnnnnnnnnnnnnnnnnnnnnnnnppppppppnnnnnnnnnnnnnnnnnnnnnnnnppppppppnnnnnnnnnnnnnnnnnnnnnnnnppppppppnnnnnnnnnnnnnnnnnnnnnnnnppppppppnnnnnnnnnnnnnnnnnnnnnnnnppppppppnnnnnnnnnnnnnnnnnnnnnnnnppppppppnnnnnnnnnnnn",
"nnnnnnnnnnpppuuuuuupppnnnnnnnnnnnnnnnnnnnnpppuuuuuupppnnnnnnnnnnnnnnnnnnnnpppuuuuuupppnnnnnnnnnnnnnnnnnnnnpppuuuuuupppnnnnnnnnnnnnnnnnnnnnpppuuuuuupppnnnnnnnnnnnnnnnnnnnnpppuuuuuupppnnnnnnnnnnnnnnnnnnnnpppuuuuuupppnnnnnnnnnnnnnnnnnnnnpppuuuuuupppnnnnnnnnnnnnnnnnnnnnpppuuuuuupppnnnnnnnnnnnnnnnnnnnnpppuuuuuupppnnnnnnnnnnnnnnnnnnnnpppuuuuuupppnnnnnnnnnnnnnnnnnnnnpppuuuuuupppnnnnnnnnnnnnnnnnnnnnpppuuuuuupppnnnnnnnnnnnnnnnnnnnnpppuuuuuupppnnnnnnnnnn",
"nnnnnnnnpppuuiiiiiiuupppnnnnnnnnnnnnnnnnpppuuiiiiiiuupppnnnnnnnnnnnnnnnnpppuuiiiiiiuupppnnnnnnnnnnnnnnnnpppuuiiiiiiuupppnnnnnnnnnnnnnnnnpppuuiiiiiiuupppnnnnnnnnnnnnnnnnpppuuiiiiiiuupppnnnnnnnnnnnnnnnnpppuuiiiiiiuupppnnnnnnnnnnnnnnnnpppuuiiiiiiuupppnnnnnnnnnnnnnnnnpppuuiiiiiiuupppnnnnnnnnnnnnnnnnpppuuiiiiiiuupppnnnnnnnnnnnnnnnnpppuuiiiiiiuupppnnnnnnnnnnnnnnnnpppuuiiiiiiuupppnnnnnnnnnnnnnnnnpppuuiiiiiiuupppnnnnnnnnnnnnnnnnpppuuiiiiiiuupppnnnnnnnn",
"nnnnnnnppuiiiippppiiiiuppnnnnnnnnnnnnnnppuiiiippppiiiiuppnnnnnnnnnnnnnnppuiiiippppiiiiuppnnnnnnnnnnnnnnppuiiiippppiiiiuppnnnnnnnnnnnnnnppuiiiippppiiiiuppnnnnnnnnnnnnnnppuiiiippppiiiiuppnnnnnnnnnnnnnnppuiiiippppiiiiuppnnnnnnnnnnnnnnppuiiiippppiiiiuppnnnnnnnnnnnnnnppuiiiippppiiiiuppnnnnnnnnnnnnnnppuiiiippppiiiiuppnnnnnnnnnnnnnnppuiiiippppiiiiuppnnnnnnnnnnnnnnppuiiiippppiiiiuppnnnnnnnnnnnnnnppuiiiippppiiiiuppnnnnnnnnnnnnnnppuiiiippppiiiiuppnnnnnnn",
"nnnnnnppuiippp0zz0pppiiuppnnnnnnnnnnnnppuiippptlltpppiiuppnnnnnnnnnnnnppuiippp*aa*pppiiuppnnnnnnnnnnnnppuiippp1jj1pppiiuppnnnnnnnnnnnnppuiippp:gg:pppiiuppnnnnnnnnnnnnppuiipppyvvypppiiuppnnnnnnnnnnnnppuiippp9dd9pppiiuppnnnnnnnnnnnnppuiippp0zz0pppiiuppnnnnnnnnnnnnppuiippptlltpppiiuppnnnnnnnnnnnnppuiippp*aa*pppiiuppnnnnnnnnnnnnppuiippp1jj1pppiiuppnnnnnnnnnnnnppuiippp:gg:pppiiuppnnnnnnnnnnnnppuiipppyvvypppiiuppnnnnnnnnnnnnppuiippp9dd9pppiiuppnnnnnn",
"nnnnnppuiip0zzxxxxzz0piiuppnnnnnnnnnnppuiiptllcccclltpiiuppnnnnnnnnnnppuiip*aassssaa*piiuppnnnnnnnnnnppuiip1jjkkkkjj1piiuppnnnnnnnnnnppuiip:gghhhhgg:piiuppnnnnnnnnnnppuiipyvvbbbbvvypiiuppnnnnnnnnnnppuiip9ddffffdd9piiuppnnnnnnnnnnppuiip0zzxxxxzz0piiuppnnnnnnnnnnppuiiptllcccclltpiiuppnnnnnnnnnnppuiip*aassssaa*piiuppnnnnnnnnnnppuiip1jjkkkkjj1piiuppnnnnnnnnnnppuiip:gghhhhgg:piiuppnnnnnnnnnnppuiipyvvbbbbvvypiiuppnnnnnnnnnnppuiip9ddffffdd9piiuppnnnnn",
"nnnnppuiip0zxxzzxzzxz0piiuppnnnnnnnnppuiiptlccllcllcltpiiuppnnnnnnnnppuiip*assaasaasa*piiuppnnnnnnnnppuiip1jkkjjkjjkj1piiuppnnnnnnnnppuiip:ghhgghgghg:piiuppnnnnnnnnppuiipyvbbvvbvvbvypiiuppnnnnnnnnppuiip9dffddfddfd9piiuppnnnnnnnnppuiip0zxxzzzzzxz0piiuppnnnnnnnnppuiiptlcclllllcltpiiuppnnnnnnnnppuiip*assaaaaasa*piiuppnnnnnnnnppuiip1jkkjjjjjkj1piiuppnnnnnnnnppuiip:ghhggggghg:piiuppnnnnnnnnppuiipyvbbvvvvvbvypiiuppnnnnnnnnppuiip9dffdddddfd9piiuppnnnn",
"nnnnpuiip0zxzz00x0xzxz0piiupnnnnnnnnpuiiptlcllttctclcltpiiupnnnnnnnnpuiip*asaa**s*sasa*piiupnnnnnnnnpuiip1jkjj11k1kjkj1piiupnnnnnnnnpuiip:ghgg::h:hghg:piiupnnnnnnnnpuiipyvbvvyybybvbvypiiupnnnnnnnnpuiip9dfdd99f9fdfd9piiupnnnnnnnnpuiip0zxzz00000zxz0piiupnnnnnnnnpuiiptlclltttttlcltpiiupnnnnnnnnpuiip*asaa*****asa*piiupnnnnnnnnpuiip1jkjj11111jkj1piiupnnnnnnnnpuiip:ghgg:::::ghg:piiupnnnnnnnnpuiipyvbvvyyyyyvbvypiiupnnnnnnnnpuiip9dfdd99999dfd9piiupnnnn",
"nnnppiip0zxz0008x80xzxz0piippnnnnnnppiiptlcltttecetclcltpiippnnnnnnppiip*asa***&s&*sasa*piippnnnnnnppiip1jkj111<k<1kjkj1piippnnnnnnppiip:ghg:::;h;:hghg:piippnnnnnnppiipyvbvyyyrbrybvbvypiippnnnnnnppiip9dfd9997f79fdfd9piippnnnnnnppiip0zxz00088800zxz0piippnnnnnnppiiptlclttteeettlcltpiippnnnnnnppiip*asa***&&&**asa*piippnnnnnnppiip1jkj111<<<11jkj1piippnnnnnnppiip:ghg:::;;;::ghg:piippnnnnnnppiipyvbvyyyrrryyvbvypiippnnnnnnppiip9dfd99977799dfd9piippnnn",
"nnnpuip0zxzx0886x68x0zxz0piupnnnnnnpuiptlclctee3c3ectlcltpiupnnnnnnpuip*asas*&&$s$&s*asa*piupnnnnnnpuip1jkjk1<<,k,<k1jkj1piupnnnnnnpuip:ghgh:;;-h-;h:ghg:piupnnnnnnpuipyvbvbyrrwbwrbyvbvypiupnnnnnnpuip9dfdf9775f57f9dfd9piupnnnnnnpuip0zxz0088666800zxz0piupnnnnnnpuiptlclttee333ettlcltpiupnnnnnnpuip*asa**&&$$$&**asa*piupnnnnnnpuip1jkj11<<,,,<11jkj1piupnnnnnnpuip:ghg::;;---;::ghg:piupnnnnnnpuipyvbvyyrrwwwryyvbvypiupnnnnnnpuip9dfd9977555799dfd9piupnnn",
"nnppuipzxz00x6664xx800zxzpiuppnnnnppuiplclttc3332ccettlclpiuppnnnnppuipasa**s$$$#ss&**asapiuppnnnnppuipjkj11k,,,>kk<11jkjpiuppnnnnppuipghg::h---=hh;::ghgpiuppnnnnppuipvbvyybwwwqbbryyvbvpiuppnnnnppuipdfd99f555%ff799dfdpiuppnnnnppuipzxz008666466800zxzpiuppnnnnppuiplcltte333233ettlclpiuppnnnnppuipasa**&$$$#$$&**asapiuppnnnnppuipjkj11<,,,>,,<11jkjpiuppnnnnppuipghg::;---=--;::ghgpiuppnnnnppuipvbvyyrwwwqwwryyvbvpiuppnnnnppuipdfd997555%55799dfdpiuppnn",
"nnpuiipzz0086x44446680zxzpiiupnnnnpuiiplltte3c222233etlclpiiupnnnnpuiipaa**&$s####$$&*asapiiupnnnnpuiipjj11<,k>>>>,,<1jkjpiiupnnnnpuiipgg::;-h======;:ghgpiiupnnnnpuiipvvyyrwbqqqqwwryvbvpiiupnnnnpuiipdd9975f%%%%5579dfdpiiupnnnnpuiipzz0086644446680zxzpiiupnnnnpuiiplltte33222233etlclpiiupnnnnpuiipaa**&$$####$$&*asapiiupnnnnpuiipjj11<,,>>>>,,<1jkjpiiupnnnnpuiipgg::;--====--;:ghgpiiupnnnnpuiipvvyyrwwqqqqwwryvbvpiiupnnnnpuiipdd99755%%%%5579dfdpiiupnn",
"nnpuip0xz08x6x44O446800zx0piupnnnnpuiptcltec3c22+223ettlctpiupnnnnpuip*sa*&s$s## ##$&**as*piupnnnnpuip1kj1<k,k>>X>>,<11jk1piupnnnnpuip:hg:;h-h==.===;::gh:piupnnnnpuipybvyrbwbqq@qqwryyvbypiupnnnnpuip9fd97f5f%%o%%5799df9piupnnnnpuip0xz0866444O446800zx0piupnnnnpuiptclte33222+223ettlctpiupnnnnpuip*sa*&$$### ##$&**as*piupnnnnpuip1kj1<,,>>>X>>,<11jk1piupnnnnpuip:hg:;--===.==-;::gh:piupnnnnpuipybvyrwwqqq@qqwryyvbypiupnnnnpuip9fd9755%%%o%%5799df9piupnn",
"nnpuipzxz0x64xOOO44xx80zxzpiupnnnnpuiplcltc32c+++22ccetlclpiupnnnnpuipasa*s$#s   ##ss&*asapiupnnnnpuipjkj1k,>kXXX>>kk<1jkjpiupnnnnpuipghg:h-=h...==hh;:ghgpiupnnnnpuipvbvybwqb@@@qqbbryvbvpiupnnnnpuipdfd9f5%fooo%%ff79dfdpiupnnnnpuipzxz08644OOO446680zxzpiupnnnnpuiplclte322+++2233etlclpiupnnnnpuipasa*&$##   ##$$&*asapiupnnnnpuipjkj1<,>>XXX>>,,<1jkjpiupnnnnpuipghg:;-==...==--;:ghgpiupnnnnpuipvbvyrwqq@@@qqwwryvbvpiupnnnnpuipdfd975%%ooo%%5579dfdpiupnn",
"nnpuipzxz08xx44OOOx46x0zxzpiupnnnnpuiplcltecc22+++c23ctlclpiupnnnnpuipasa*&ss##   s#$s*asapiupnnnnpuipjkj1<kk>>XXXk>,k1jkjpiupnnnnpuipghg:;hh==...h=-h:ghgpiupnnnnpuipvbvyrbbqq@@@bqwbyvbvpiupnnnnpuipdfd97ff%%ooof%5f9dfdpiupnnnnpuipzxz086644OOO44680zxzpiupnnnnpuiplclte3322+++223etlclpiupnnnnpuipasa*&$$##   ##$&*asapiupnnnnpuipjkj1<,,>>XXX>>,<1jkjpiupnnnnpuipghg:;--==...==-;:ghgpiupnnnnpuipvbvyrwwqq@@@qqwryvbvpiupnnnnpuipdfd9755%%ooo%%579dfdpiupnn",
"nnpuip0xz008644O44x6x80zx0piupnnnnpuiptcltte322+22c3cetlctpiupnnnnpuip*sa**&$## ##s$s&*as*piupnnnnpuip1kj11<,>>X>>k,k<1jk1piupnnnnpuip:hg::;-==.==h-h;:gh:piupnnnnpuipybvyyrwqq@qqbwbryvbypiupnnnnpuip9fd9975%%o%%f5f79df9piupnnnnpuip0xz008644O4446680zx0piupnnnnpuiptcltte322+22233etlctpiupnnnnpuip*sa**&$## ###$$&*as*piupnnnnpuip1kj11<,>>X>>>,,<1jk1piupnnnnpuip:hg::;-==.===--;:gh:piupnnnnpuipybvyyrwqq@qqqwwryvbypiupnnnnpuip9fd9975%%o%%%5579df9piupnn",
"nnpuiipzxz08664444x6800zzpiiupnnnnpuiiplclte332222c3ettllpiiupnnnnpuiipasa*&$$####s$&**aapiiupnnnnpuiipjkj1<,,>>>>k,<11jjpiiupnnnnpuiipghg:;--====h-;::ggpiiupnnnnpuiipvbvyrwwqqqqbwryyvvpiiupnnnnpuiipdfd9755%%%%f5799ddpiiupnnnnpuiipzxz0866444466800zzpiiupnnnnpuiiplclte33222233ettllpiiupnnnnpuiipasa*&$$####$$&**aapiiupnnnnpuiipjkj1<,,>>>>,,<11jjpiiupnnnnpuiipghg:;--====--;::ggpiiupnnnnpuiipvbvyrwwqqqqwwryyvvpiiupnnnnpuiipdfd9755%%%%55799ddpiiupnn",
"nnppuipzxz008xx4666x00zxzpiuppnnnnppuiplclttecc2333cttlclpiuppnnnnppuipasa**&ss#$$$s**asapiuppnnnnppuipjkj11<kk>,,,k11jkjpiuppnnnnppuipghg::;hh=---h::ghgpiuppnnnnppuipvbvyyrbbqwwwbyyvbvpiuppnnnnppuipdfd997ff%555f99dfdpiuppnnnnppuipzxz008664666800zxzpiuppnnnnppuiplcltte332333ettlclpiuppnnnnppuipasa**&$$#$$$&**asapiuppnnnnppuipjkj11<,,>,,,<11jkjpiuppnnnnppuipghg::;--=---;::ghgpiuppnnnnppuipvbvyyrwwqwwwryyvbvpiuppnnnnppuipdfd99755%555799dfdpiuppnn",
"nnnpuip0zxz0x86x6880xzxz0piupnnnnnnpuiptlcltce3c3eetclcltpiupnnnnnnpuip*asa*s&$s$&&*sasa*piupnnnnnnpuip1jkj1k<,k,<<1kjkj1piupnnnnnnpuip:ghg:h;-h-;;:hghg:piupnnnnnnpuipyvbvybrwbwrrybvbvypiupnnnnnnpuip9dfd9f75f5779fdfd9piupnnnnnnpuip0zxz0086668800zxz0piupnnnnnnpuiptlcltte333eettlcltpiupnnnnnnpuip*asa**&$$$&&**asa*piupnnnnnnpuip1jkj11<,,,<<11jkj1piupnnnnnnpuip:ghg::;---;;::ghg:piupnnnnnnpuipyvbvyyrwwwrryyvbvypiupnnnnnnpuip9dfd9975557799dfd9piupnnn",
"nnnppiip0zxzx08x8000zxz0piippnnnnnnppiiptlclctecetttlcltpiippnnnnnnppiip*asas*&s&***asa*piippnnnnnnppiip1jkjk1<k<111jkj1piippnnnnnnppiip:ghgh:;h;:::ghg:piippnnnnnnppiipyvbvbyrbryyyvbvypiippnnnnnnppiip9dfdf97f7999dfd9piippnnnnnnppiip0zxz00888000zxz0piippnnnnnnppiiptlcltteeetttlcltpiippnnnnnnppiip*asa**&&&***asa*piippnnnnnnppiip1jkj11<<<111jkj1piippnnnnnnppiip:ghg::;;;:::ghg:piippnnnnnnppiipyvbvyyrrryyyvbvypiippnnnnnnppiip9dfd99777999dfd9piippnnn",
"nnnnpuiip0zxzx0x00zzxz0piiupnnnnnnnnpuiiptlclctcttllcltpiiupnnnnnnnnpuiip*asas*s**aasa*piiupnnnnnnnnpuiip1jkjk1k11jjkj1piiupnnnnnnnnpuiip:ghgh:h::gghg:piiupnnnnnnnnpuiipyvbvbybyyvvbvypiiupnnnnnnnnpuiip9dfdf9f99ddfd9piiupnnnnnnnnpuiip0zxz00000zzxz0piiupnnnnnnnnpuiiptlcltttttllcltpiiupnnnnnnnnpuiip*asa*****aasa*piiupnnnnnnnnpuiip1jkj11111jjkj1piiupnnnnnnnnpuiip:ghg:::::gghg:piiupnnnnnnnnpuiipyvbvyyyyyvvbvypiiupnnnnnnnnpuiip9dfd99999ddfd9piiupnnnn",
"nnnnppuiip0zxzzxzzxxz0piiuppnnnnnnnnppuiiptlcllcllccltpiiuppnnnnnnnnppuiip*asaasaassa*piiuppnnnnnnnnppuiip1jkjjkjjkkj1piiuppnnnnnnnnppuiip:ghgghgghhg:piiuppnnnnnnnnppuiipyvbvvbvvbbvypiiuppnnnnnnnnppuiip9dfddfddffd9piiuppnnnnnnnnppuiip0zxzzzzzxxz0piiuppnnnnnnnnppuiiptlclllllccltpiiuppnnnnnnnnppuiip*asaaaaassa*piiuppnnnnnnnnppuiip1jkjjjjjkkj1piiuppnnnnnnnnppuiip:ghggggghhg:piiuppnnnnnnnnppuiipyvbvvvvvbbvypiiuppnnnnnnnnppuiip9dfdddddffd9piiuppnnnn",
"nnnnnppuiip0zzxxxxzz0piiuppnnnnnnnnnnppuiiptllcccclltpiiuppnnnnnnnnnnppuiip*aassssaa*piiuppnnnnnnnnnnppuiip1jjkkkkjj1piiuppnnnnnnnnnnppuiip:gghhhhgg:piiuppnnnnnnnnnnppuiipyvvbbbbvvypiiuppnnnnnnnnnnppuiip9ddffffdd9piiuppnnnnnnnnnnppuiip0zzxxxxzz0piiuppnnnnnnnnnnppuiiptllcccclltpiiuppnnnnnnnnnnppuiip*aassssaa*piiuppnnnnnnnnnnppuiip1jjkkkkjj1piiuppnnnnnnnnnnppuiip:gghhhhgg:piiuppnnnnnnnnnnppuiipyvvbbbbvvypiiuppnnnnnnnnnnppuiip9ddffffdd9piiuppnnnnn",
"nnnnnnppuiippp0zz0pppiiuppnnnnnnnnnnnnppuiippptlltpppiiuppnnnnnnnnnnnnppuiippp*aa*pppiiuppnnnnnnnnnnnnppuiippp1jj1pppiiuppnnnnnnnnnnnnppuiippp:gg:pppiiuppnnnnnnnnnnnnppuiipppyvvypppiiuppnnnnnnnnnnnnppuiippp9dd9pppiiuppnnnnnnnnnnnnppuiippp0zz0pppiiuppnnnnnnnnnnnnppuiippptlltpppiiuppnnnnnnnnnnnnppuiippp*aa*pppiiuppnnnnnnnnnnnnppuiippp1jj1pppiiuppnnnnnnnnnnnnppuiippp:gg:pppiiuppnnnnnnnnnnnnppuiipppyvvypppiiuppnnnnnnnnnnnnppuiippp9dd9pppiiuppnnnnnn",
"nnnnnnnppuiiiippppiiiiuppnnnnnnnnnnnnnnppuiiiippppiiiiuppnnnnnnnnnnnnnnppuiiiippppiiiiuppnnnnnnnnnnnnnnppuiiiippppiiiiuppnnnnnnnnnnnnnnppuiiiippppiiiiuppnnnnnnnnnnnnnnppuiiiippppiiiiuppnnnnnnnnnnnnnnppuiiiippppiiiiuppnnnnnnnnnnnnnnppuiiiippppiiiiuppnnnnnnnnnnnnnnppuiiiippppiiiiuppnnnnnnnnnnnnnnppuiiiippppiiiiuppnnnnnnnnnnnnnnppuiiiippppiiiiuppnnnnnnnnnnnnnnppuiiiippppiiiiuppnnnnnnnnnnnnnnppuiiiippppiiiiuppnnnnnnnnnnnnnnppuiiiippppiiiiuppnnnnnnn",
"nnnnnnnnpppuuiiiiiiuupppnnnnnnnnnnnnnnnnpppuuiiiiiiuupppnnnnnnnnnnnnnnnnpppuuiiiiiiuupppnnnnnnnnnnnnnnnnpppuuiiiiiiuupppnnnnnnnnnnnnnnnnpppuuiiiiiiuupppnnnnnnnnnnnnnnnnpppuuiiiiiiuupppnnnnnnnnnnnnnnnnpppuuiiiiiiuupppnnnnnnnnnnnnnnnnpppuuiiiiiiuupppnnnnnnnnnnnnnnnnpppuuiiiiiiuupppnnnnnnnnnnnnnnnnpppuuiiiiiiuupppnnnnnnnnnnnnnnnnpppuuiiiiiiuupppnnnnnnnnnnnnnnnnpppuuiiiiiiuupppnnnnnnnnnnnnnnnnpppuuiiiiiiuupppnnnnnnnnnnnnnnnnpppuuiiiiiiuupppnnnnnnnn",
"nnnnnnnnnnpppuuuuuupppnnnnnnnnnnnnnnnnnnnnpppuuuuuupppnnnnnnnnnnnnnnnnnnnnpppuuuuuupppnnnnnnnnnnnnnnnnnnnnpppuuuuuupppnnnnnnnnnnnnnnnnnnnnpppuuuuuupppnnnnnnnnnnnnnnnnnnnnpppuuuuuupppnnnnnnnnnnnnnnnnnnnnpppuuuuuupppnnnnnnnnnnnnnnnnnnnnpppuuuuuupppnnnnnnnnnnnnnnnnnnnnpppuuuuuupppnnnnnnnnnnnnnnnnnnnnpppuuuuuupppnnnnnnnnnnnnnnnnnnnnpppuuuuuupppnnnnnnnnnnnnnnnnnnnnpppuuuuuupppnnnnnnnnnnnnnnnnnnnnpppuuuuuupppnnnnnnnnnnnnnnnnnnnnpppuuuuuupppnnnnnnnnnn",
"nnnnnnnnnnnnppppppppnnnnnnnnnnnnnnnnnnnnnnnnppppppppnnnnnnnnnnnnnnnnnnnnnnnnppppppppnnnnnnnnnnnnnnnnnnnnnnnnppppppppnnnnnnnnnnnnnnnnnnnnnnnnppppppppnnnnnnnnnnnnnnnnnnnnnnnnppppppppnnnnnnnnnnnnnnnnnnnnnnnnppppppppnnnnnnnnnnnnnnnnnnnnnnnnppppppppnnnnnnnnnnnnnnnnnnnnnnnnppppppppnnnnnnnnnnnnnnnnnnnnnnnnppppppppnnnnnnnnnnnnnnnnnnnnnnnnppppppppnnnnnnnnnnnnnnnnnnnnnnnnppppppppnnnnnnnnnnnnnnnnnnnnnnnnppppppppnnnnnnnnnnnnnnnnnnnnnnnnppppppppnnnnnnnnnnnn",
"nnnnnnnnnnnnnnnnnnnnnnnnnnnnnnnnnnnnnnnnnnnnnnnnnnnnnnnnnnnnnnnnnnnnnnnnnnnnnnnnnnnnnnnnnnnnnnnnnnnnnnnnnnnnnnnnnnnnnnnnnnnnnnnnnnnnnnnnnnnnnnnnnnnnnnnnnnnnnnnnnnnnnnnnnnnnnnnnnnnnnnnnnnnnnnnnnnnnnnnnnnnnnnnnnnnnnnnnnnnnnnnnnnnnnnnnnnnnnnnnnnnnnnnnnnnnnnnnnnnnnnnnnnnnnnnnnnnnnnnnnnnnnnnnnnnnnnnnnnnnnnnnnnnnnnnnnnnnnnnnnnnnnnnnnnnnnnnnnnnnnnnnnnnnnnnnnnnnnnnnnnnnnnnnnnnnnnnnnnnnnnnnnnnnnnnnnnnnnnnnnnnnnnnnnnnnnnnnnnnnnnnnnnnnnnnnnnnnnnnnnnnnnnnn",
"nnnnnnnnnnnnnnnnnnnnnnnnnnnnnnnnnnnnnnnnnnnnnnnnnnnnnnnnnnnnnnnnnnnnnnnnnnnnnnnnnnnnnnnnnnnnnnnnnnnnnnnnnnnnnnnnnnnnnnnnnnnnnnnnnnnnnnnnnnnnnnnnnnnnnnnnnnnnnnnnnnnnnnnnnnnnnnnnnnnnnnnnnnnnnnnnnnnnnnnnnnnnnnnnnnnnnnnnnnnnnnnnnnnnnnnnnnnnnnnnnnnnnnnnnnnnnnnnnnnnnnnnnnnnnnnnnnnnnnnnnnnnnnnnnnnnnnnnnnnnnnnnnnnnnnnnnnnnnnnnnnnnnnnnnnnnnnnnnnnnnnnnnnnnnnnnnnnnnnnnnnnnnnnnnnnnnnnnnnnnnnnnnnnnnnnnnnnnnnnnnnnnnnnnnnnnnnnnnnnnnnnnnnnnnnnnnnnnnnnnnnnnnnnn"
};
