/* XPM */
static char *portal6_spritesheet[] = {
/* columns rows colors chars-per-pixel */
"224 32 50 1 ",
"  c #3D1D1D",
". c #203D1D",
"X c #3D3B1D",
"o c #3D1D31",
"O c #341D3D",
"+ c #1D203D",
"@ c #1D3D3B",
"# c #4E2323",
"$ c #5B2929",
"% c #4E233E",
"& c #682F2F",
"* c #793737",
"= c #284E23",
"- c #2E5B29",
"; c #35682F",
": c #377937",
"> c #4C4E23",
", c #5B5829",
"< c #65682F",
"1 c #797637",
"2 c #232C4E",
"3 c #29345B",
"4 c #42234E",
"5 c #5B2949",
"6 c #4D295B",
"7 c #682F53",
"8 c #582F68",
"9 c #793768",
"0 c #673779",
"q c #234C4E",
"w c #295B58",
"e c #2F4168",
"r c #2F5F68",
"t c #374579",
"y c #376F79",
"u c #864242",
"i c #934848",
"p c #864266",
"a c #93486F",
"s c #428642",
"d c #489348",
"f c #828642",
"g c #938F48",
"h c #425086",
"j c #734286",
"k c #7E4893",
"l c #486093",
"z c #428286",
"x c #489387",
"c c None",
/* pixels */
"cccccccccccckkkkkkkkccccccccccccccccccccccccllllllllcccccccccccccccccccccccciiiiiiiiccccccccccccccccccccccccggggggggccccccccccccccccccccccccddddddddccccccccccccccccccccccccxxxxxxxxccccccccccccccccccccccccaaaaaaaacccccccccccc",
"ccccccccckkkj0000j0jkkkcccccccccccccccccclllhtttththlllcccccccccccccccccciiiu****u*uiiiccccccccccccccccccgggf1111f1fgggccccccccccccccccccddds::::s:sdddccccccccccccccccccxxxzyyyyzyzxxxccccccccccccccccccaaap9999p9paaaccccccccc",
"cccccccckkjj00000000jjkkccccccccccccccccllhhtttttttthhllcccccccccccccccciiuu********uuiiccccccccccccccccggff11111111ffggccccccccccccccccddss::::::::ssddccccccccccccccccxxzzyyyyyyyyzzxxccccccccccccccccaapp99999999ppaacccccccc",
"cccccckk00000088880000jjkkcccccccccccclltttttteeeetttthhllccccccccccccii******&&&&****uuiiccccccccccccgg111111<<<<1111ffggccccccccccccdd::::::;;;;::::ssddccccccccccccxxyyyyyyrrrryyyyzzxxccccccccccccaa99999977779999ppaacccccc",
"ccccckk00000088888800000jjkcccccccccclltttttteeeeeettttthhlccccccccccii******&&&&&&*****uuiccccccccccgg111111<<<<<<11111ffgccccccccccdd::::::;;;;;;:::::ssdccccccccccxxyyyyyyrrrrrryyyyyzzxccccccccccaa99999977777799999ppaccccc",
"cccckk0008888868888888000jjkccccccccllttteeeee3eeeeeeettthhlccccccccii***&&&&&$&&&&&&&***uuiccccccccgg111<<<<<,<<<<<<<111ffgccccccccdd:::;;;;;-;;;;;;;:::ssdccccccccxxyyyrrrrrwrrrrrrryyyzzxccccccccaa9997777757777777999ppacccc",
"ccckkj00888886666668888000jjkccccccllhtteeeee333333eeeettthhlcccccciiu**&&&&&$$$$$$&&&&***uuiccccccggf11<<<<<,,,,,,<<<<111ffgccccccdds::;;;;;------;;;;:::ssdccccccxxzyyrrrrrwwwwwwrrrryyyzzxccccccaap99777775555557777999ppaccc",
"ccckj0088866666666668888000jjcccccclhtteee3333333333eeeettthhcccccciu**&&&$$$$$$$$$$&&&&***uuccccccgf11<<<,,,,,,,,,,<<<<111ffccccccds::;;;----------;;;;:::ssccccccxzyyrrrwwwwwwwwwwrrrryyyzzccccccap9977755555555557777999ppccc",
"cckj000888666666644668888800jjcccclhttteee33333332233eeeeetthhcccciu***&&&$$$$$$$##$$&&&&&**uuccccgf111<<<,,,,,,,>>,,<<<<<11ffccccds:::;;;-------==--;;;;;::ssccccxzyyyrrrwwwwwwwqqwwrrrrryyzzccccap9997775555555%%557777799ppcc",
"ckkj008886666666444666888800jjkccllhtteee3333333222333eeeetthhlcciiu**&&&$$$$$$$###$$$&&&&**uuiccggf11<<<,,,,,,,>>>,,,<<<<11ffgccdds::;;;-------===---;;;;::ssdccxxzyyrrrwwwwwwwqqqwwwrrrryyzzxccaap997775555555%%%555777799ppac",
"ckjj0888866646444444666888800jkcclhhteeee33323222222333eeeetthlcciuu*&&&&$$$#$######$$$&&&&**uiccgff1<<<<,,,>,>>>>>>,,,<<<<11fgccdss:;;;;---=-======---;;;;::sdccxzzyrrrrwwwqwqqqqqqwwwrrrryyzxccapp97777555%5%%%%%%555777799pac",
"ckjj0888666644444444466688800jjcclhhteee3333222222222333eeetthhcciuu*&&&$$$$#########$$$&&&**uuccgff1<<<,,,,>>>>>>>>>,,,<<<11ffccdss:;;;----=========---;;;::ssccxzzyrrrwwwwqqqqqqqqqwwwrrryyzzccapp97775555%%%%%%%%%55577799ppc",
"kjj0088866644444O4444666888000jklhhtteee33322222+2222333eeettthliuu**&&&$$$##### ####$$$&&&***uigff11<<<,,,>>>>>X>>>>,,,<<<111fgdss::;;;---=====.====---;;;:::sdxzzyyrrrwwwqqqqq@qqqqwwwrrryyyzxapp99777555%%%%%o%%%%555777999pa",
"kjj0888666644444OOO44466688800jklhhteee333322222+++222333eeetthliuu*&&&$$$$#####   ###$$$&&&**uigff1<<<,,,,>>>>>XXX>>>,,,<<<11fgdss:;;;----=====...===---;;;::sdxzzyrrrwwwwqqqqq@@@qqqwwwrrryyzxapp97775555%%%%%ooo%%%55577799pa",
"jjj08866664444OOOOO444666888800khhhtee33332222+++++222333eeeettluuu*&&$$$$####     ###$$$&&&&**ifff1<<,,,,>>>>XXXXX>>>,,,<<<<11gsss:;;----====.....===---;;;;::dzzzyrrwwwwqqqq@@@@@qqqwwwrrrryyxppp9775555%%%%ooooo%%%555777799a",
"kj008866664444OOOOO4444668888000lhttee33332222+++++222233eeeetttiu**&&$$$$####     ####$$&&&&***gf11<<,,,,>>>>XXXXX>>>>,,<<<<111ds::;;----====.....====--;;;;:::xzyyrrwwwwqqqq@@@@@qqqqwwrrrryyyap99775555%%%%ooooo%%%%557777999",
"jj008886664444OOOOOO444668888000hhtteee3332222++++++22233eeeetttuu**&&&$$$####      ###$$&&&&***ff11<<<,,,>>>>XXXXXX>>>,,<<<<111ss::;;;---====......===--;;;;:::zzyyrrrwwwqqqq@@@@@@qqqwwrrrryyypp99777555%%%%oooooo%%%557777999",
"jj00888666444OOOOOOO44466888000jhhtteee333222+++++++22233eeettthuu**&&&$$$###       ###$$&&&***uff11<<<,,,>>>XXXXXXX>>>,,<<<111fss::;;;---===.......===--;;;:::szzyyrrrwwwqqq@@@@@@@qqqwwrrryyyzpp99777555%%%ooooooo%%%55777999p",
"kj008886666444OOOOOO4466688880jjlhtteee3333222++++++22333eeeethhiu**&&&$$$$###      ##$$$&&&&*uugf11<<<,,,,>>>XXXXXX>>,,,<<<<1ffds::;;;----===......==---;;;;:ssxzyyrrrwwwwqqq@@@@@@qqwwwrrrryzzap997775555%%%oooooo%%55577779pp",
"kjj008866664444O4OO44666888800jklhhttee33332222+2++22333eeeetthliuu**&&$$$$#### #  ##$$$&&&&**uigff11<<,,,,>>>>X>XX>>,,,<<<<11fgdss::;;----====.=..==---;;;;::sdxzzyyrrwwwwqqqq@q@@qqwwwrrrryyzxapp99775555%%%%o%oo%%555777799pa",
"cjj008886666444444444666888800jjchhtteee3333222222222333eeeetthhcuu**&&&$$$$#########$$$&&&&**uucff11<<<,,,,>>>>>>>>>,,,<<<<11ffcss::;;;----=========---;;;;::ssczzyyrrrwwwwqqqqqqqqqwwwrrrryyzzcpp997775555%%%%%%%%%555777799pp",
"cjjj0888666646444444666888880jjjchhhteee333323222222333eeeeethhhcuuu*&&&$$$$#$######$$$&&&&&*uuucfff1<<<,,,,>,>>>>>>,,,<<<<<1fffcsss:;;;----=-======---;;;;;:sssczzzyrrrwwwwqwqqqqqqwwwrrrrryzzzcppp97775555%5%%%%%%555777779ppp",
"ckjj08886666664446666688888000kcclhhteee33333322233333eeeeetttlcciuu*&&&$$$$$$###$$$$$&&&&&***iccgff1<<<,,,,,,>>>,,,,,<<<<<111gccdss:;;;------===-----;;;;;:::dccxzzyrrrwwwwwwqqqwwwwwrrrrryyyxccapp9777555555%%%5555577777999ac",
"cckj088886666666666668888800jkcccclhteeee333333333333eeeeetthlcccciu*&&&&$$$$$$$$$$$$&&&&&**uiccccgf1<<<<,,,,,,,,,,,,<<<<<11fgccccds:;;;;------------;;;;;::sdccccxzyrrrrwwwwwwwwwwwwrrrrryyzxccccap977775555555555557777799pacc",
"cccjj08888866666666688888000kcccccchhteeeee333333333eeeeetttlccccccuu*&&&&&$$$$$$$$$&&&&&***iccccccff1<<<<<,,,,,,,,,<<<<<111gccccccss:;;;;;---------;;;;;:::dcccccczzyrrrrrwwwwwwwwwrrrrryyyxccccccpp97777755555555577777999accc",
"ccckj0008888866668888888800jkcccccclhttteeeee3333eeeeeeeetthlcccccciu***&&&&&$$$$&&&&&&&&**uiccccccgf111<<<<<,,,,<<<<<<<<11fgccccccds:::;;;;;----;;;;;;;;::sdccccccxzyyyrrrrrwwwwrrrrrrrryyzxccccccap9997777755557777777799paccc",
"ccccjjj0088888688888888000jjcccccccchhhtteeeee3eeeeeeeettthhccccccccuuu**&&&&&$&&&&&&&&***uuccccccccfff11<<<<<,<<<<<<<<111ffccccccccsss::;;;;;-;;;;;;;;:::sscccccccczzzyyrrrrrwrrrrrrrryyyzzccccccccppp9977777577777777999ppcccc",
"ccccckjj0000888888800000jjkcccccccccclhhtttteeeeeeettttthhlcccccccccciuu****&&&&&&&*****uuiccccccccccgff1111<<<<<<<11111ffgccccccccccdss::::;;;;;;;:::::ssdccccccccccxzzyyyyrrrrrrryyyyyzzxccccccccccapp9999777777799999ppaccccc",
"cccccckjj000088888800000jkcccccccccccclhhtttteeeeeettttthlcccccccccccciuu****&&&&&&*****uiccccccccccccgff1111<<<<<<11111fgccccccccccccdss::::;;;;;;:::::sdccccccccccccxzzyyyyrrrrrryyyyyzxccccccccccccapp999977777799999pacccccc",
"ccccccccjjjj000080000jjjcccccccccccccccchhhhttttetttthhhccccccccccccccccuuuu****&****uuuccccccccccccccccffff1111<1111fffccccccccccccccccssss::::;::::ssscccccccccccccccczzzzyyyyryyyyzzzccccccccccccccccpppp999979999pppcccccccc",
"ccccccccckkkjj00000jjjkcccccccccccccccccclllhhttttthhhlcccccccccccccccccciiiuu*****uuuiccccccccccccccccccgggff11111fffgccccccccccccccccccdddss:::::sssdccccccccccccccccccxxxzzyyyyyzzzxccccccccccccccccccaaapp99999pppaccccccccc",
"cccccccccccckjjjj0kjcccccccccccccccccccccccclhhhhtlhcccccccccccccccccccccccciuuuu*iuccccccccccccccccccccccccgffff1gfccccccccccccccccccccccccdssss:dsccccccccccccccccccccccccxzzzzyxzccccccccccccccccccccccccapppp9apcccccccccccc"
};
