/* XPM */
static char *death6[] = {
/* columns rows colors chars-per-pixel */
"36 32 5 1 ",
"  c #515262",
". c #63787D",
"X c #8EA091",
"o c #FFFDFB",
"O c None",
/* pixels */
"OOOOOOOOOOOOOOOOOOOOOOOOOOOOOOOOOOOO",
"OOOOOOOOOOOOOOOOOOOOOOOOOOOOOOOOOOOO",
"OOOOOOOOOOOOOOOOOOOOOOOOOOOOOOOOOOOO",
"OOOOOOOOOOOOOOOOOOOOOOOOOOOOOOOOOOOO",
"OOOOOOOOOOOOOOOOOOOOOOOOOOOOOOOOOOOO",
"OOOOOOOOOOOOOOOOOOOOOOOOOOOOOOOOOOOO",
"OOOOOOOOOOOOOOOOOOOOOOOOOOOOOOOOOOOO",
"OOOOOOOOOOOOOOOOOOOOOOOOOOOOOOOOOOOO",
"OOOOOOOOOOOOOOOOOOOOOOOOOOOOOOOOOOOO",
"OOOOOOOOOOOOOOOOOOOOOOOOOOOOOOOOOOOO",
"OOOOOOOOOOOOOOOOOOOOOOOOOOOOOOOOOOOO",
"OOOOOOOOOOOOOOOOOOOOOOOOOOOOOOOOOOOO",
"OOOOOOOOOOOOOOOOOOOOOOOOOOOOOOOOOOOO",
"OOOOOOOOOOOOOOOOOOOOOOOOOOOOOOOOOOOO",
"OOOOOoOOOOOOOOOOOOOOOOOOOOOOOO OOOOO",
"OOOOOOOOOOOOOOOOOOOOOOOOOOOOO OOOOOO",
"OOOOOOOOOOOOOOOOOOOOOOOOOOOOOOOOOOOO",
"OOOOOOOOOOOOOOOOOOOOOOOOOOOOO OOOOOO",
"OOOOOOOOOOOOOOOOOOOOOOOOOOOOO OOOOOO",
"OOOOOOOOOOOOOOOOOOOOOOOOOOOOO OOOOOO",
"OOOOOOOO OOOOOOOOOOOOOOOOOOOO OOOOOO",
"OOOOOOO O OOOOOOOOOOOOOOOOO      OOO",
"OOOOOO OOOOOOOOOOOOOOOOOOO .XXXX. OO",
"OOOOOO OOOOOOOOOOOOOOOOOO .X .XXXX O",
"OOOOOO OOOOOOOOOOOOOOOOOO.X .XX.XX.O",
"OOOOOO  OOOOOOOOOOOOOOOO.X .XX.  XXO",
"OO        OOOOOOOOOOOOOO.X.XX.    X ",
" .XXXXXXX.OOOOOOOOOOOOOO.XXXX.    X ",
"O X. XXX. OOOOOOOOOOOOOO XXXX.    X ",
"O .X.  X. OOOOOOOOOOOOOOO.XXXX.  XX ",
"O .XX.    OOOOOOOOOOOOOOO ..XXX..X O",
"O XX. XX. OOOOOOOOOOOOOOOO  ..XXX OO"
};
