/* XPM */
static char *death5[] = {
/* columns rows colors chars-per-pixel */
"36 32 6 1 ",
"  c #515262",
". c #63787D",
"X c #CAA05A",
"o c #8EA091",
"O c white",
"+ c None",
/* pixels */
"++++++++++++++++++++++++++++++++++++",
"++++++++++++++++++++++++++++++++++++",
"++++++++++++++++++++++++++++++++++++",
"++++++++++++++++++++++++++++++++++++",
"++++++++++++++++++++++++++++++++++++",
"++++++++++++++++++++++++++++++++++++",
"++++++++++++++++++++++++++++++++++++",
"++++++++++++++++++++++++++++++++++++",
"++++++++++++++++++++++++++++++++++++",
"++++++++++++++++++++++++++++++++++++",
"++++++++++++++++++++++++++++++++++++",
"++++++++++++++++++++++++++++++++++++",
"++++++++++++++++++++++++++++++++++++",
"+++++++++++++O++++++++++++ +++++++++",
"+++++X+++++++++++++++++++++ ++++++++",
"+++++++++++++++O++++++++++++++++++++",
"++++++++++++++++++++++++++++ +++++++",
"+++++++++++++O+++O++++++++++ +++++++",
"++++++++++++++++++++++++++++ +++++++",
"++++++++++++++++++++++++++++ +++++++",
"++++++++  ++++++++++++++++      ++++",
"+++++++ ++ ++++++++++++++ .oooo. +++",
"++++++ +++++++++++++++++ .o .oooo ++",
"++++++ +++++++++++++++++.o .oo.oo.++",
"++++++  +++++++++++++++.o .oo.  oo++",
"++        +++++++++++++.o.oo.    o +",
" .ooooooo.O++++++++++++.oooo.    o +",
"+ o. ooo. +++++++++++++ oooo.    o +",
"+ .o.  o. ++++++++++++++.oooo.  oo +",
"+ .oo.    O+++++++++++++ ..ooo..o ++",
"+ oo. oo. +++++++++++++++  ..ooo +++",
" .ooooooo.O+++++++++++++++      ++++"
};
