/* XPM */
static char *death7[] = {
/* columns rows colors chars-per-pixel */
"36 32 4 1 ",
"  c #515262",
". c #63787D",
"X c #8EA091",
"o c None",
/* pixels */
"oooooooooooooooooooooooooooooooooooo",
"oooooooooooooooooooooooooooooooooooo",
"oooooooooooooooooooooooooooooooooooo",
"oooooooooooooooooooooooooooooooooooo",
"oooooooooooooooooooooooooooooooooooo",
"oooooooooooooooooooooooooooooooooooo",
"oooooooooooooooooooooooooooooooooooo",
"oooooooooooooooooooooooooooooooooooo",
"oooooooooooooooooooooooooooooooooooo",
"oooooooooooooooooooooooooooooooooooo",
"oooooooooooooooooooooooooooooooooooo",
"oooooooooooooooooooooooooooooooooooo",
"oooooooooooooooooooooooooooooooooooo",
"ooooooooooooooooooooooooooooo oooooo",
"ooooooooooooooooooooooooooooo oooooo",
"oooooooooooooooooooooooooooooooooooo",
"ooooooooooooooooooooooooooooo oooooo",
"ooooooooooooooooooooooooooooo oooooo",
"ooooooooooooooooooooooooooooo oooooo",
"ooooooooooooooooooooooooooooo oooooo",
"oooooooo oooooooooooooooooo      ooo",
"ooooooo o oooooooooooooooo .XXXX. oo",
"oooooo ooo oooooooooooooo .X .XXXX o",
"oooooo oooooooooooooooooo.X .XX.XX.o",
"oooooo  oooooooooooooooo.X .XX.  XXo",
"oo        oooooooooooooo.X.XX.    X ",
" .XXXXXXX.oooooooooooooo.XXXX.    X ",
"o X. XXX. oooooooooooooo XXXX.    X ",
"o .X.  X. ooooooooooooooo.XXXX.  XX ",
"o .XX.    ooooooooooooooo ..XXX..X o",
"o XX. XX. oooooooooooooooo  ..XXX oo",
" .XXXXXXX.ooooooooooooooooo      ooo"
};
