/* XPM */
static char *death4[] = {
/* columns rows colors chars-per-pixel */
"32 32 6 1 ",
"  c #515262",
". c #63787D",
"X c #AE6A47",
"o c #CAA05A",
"O c #8EA091",
"+ c None",
/* pixels */
"++++++++++++++++++++++++++++++++",
"+++++++++++++++++++++++++ ++++++",
"++++++++++++++++++++++++ +++++++",
"++++++++++++++++++++++++ +++++++",
"++++++++++++++++++++++++ +++++++",
"++++++++++++++++++++++      ++++",
"+++++++++++++++++++++ .OOOO. +++",
"++++++++++++++++++++ .O .OOOO ++",
"++++++++++++++++++++.O .OO.OO.++",
"+++++++++++++++++++.O .OO.  OO++",
"+++++++++++++++++++.O.OO.    O +",
"+++++++++++++++++++.OOOO.    O +",
"+++++++++++++++++++ OOOO.    O +",
"++++++++++++++++++++.OOOO.  OO +",
"+++++++++++++o++++++ ..OOO..O ++",
"+++++X+++++++++++++++  ..OOO +++",
"+++++ +++++++++o++++++      ++++",
"++++++ ++++++++++++++++ ++ +++++",
"+++++++ ++++++o++o++++ ++ ++++++",
"+++++++ +++++++++++++++++X++++++",
"+++++++ +++++++++++++o++++++++++",
"+++++++ ++++++++++++++++++++++++",
"+++++++    o++++++++++++++++++++",
"+++++++  OO ++++++++++++++++++++",
"++++   OOO. o+++++++++++++++++++",
"++++ OOOOO. o+++++++++++++++++++",
"+++ .O..     +++++++++++++++++++",
"++++ .OO. O..o++++++++++++++++++",
"+++++ .O. OO++++++++++++++++++++",
"+++++ OOOO++++++++++++++++++++++",
"+++++ OO++++++++++++++++++++++++",
"+++++ ++++++++++++++++++++++++++"
};
