/* XPM */
static char *death3[] = {
/* columns rows colors chars-per-pixel */
"32 32 5 1 ",
"  c #515262",
". c #63787D",
"X c #AE6A47",
"o c #8EA091",
"O c None",
/* pixels */
"OOOOOOOOOOOOOOOOOOOOOOOOOOOOOOOO",
"OOOOOOOOOOOOOOOOO OOOOOOOOOOOOOO",
"OOOOOOOOOOOOOOOOOO OOOOOOOOOOOOO",
"OOOOOOOOOOOOOOOOOOOOOOOOOOOOOOOO",
"OOOOOOOOOOOOOOOOOOO OOOOOOOOOOOO",
"OOOOOOOOOOOOOOOOOOOO OOOOOOOOOOO",
"OOOOOOOOOOOOOOOOOOOOO OOOOOOOOOO",
"OOOOOOOOOOOOOOOOOOOOO OOOOOOOOOO",
"OOOOOOOOOOOOOOOOOOO      OOOOOOO",
"OOOOOOOOOOOOOOOOOO .oooo. OOOOOO",
"OOOOOOOOOOOOOOOOO .o .oooo OOOOO",
"OOOOOOOOOOOOOOOOO.o .oo.oo.OOOOO",
"OOOOOOOOOOOOOOOO.o .oo.  ooOOOOO",
"OOOOOOOOOOOOOOOO.o.oo.    o OOOO",
"OOOOOOOOOOOOOOOO.oooo.    o OOOO",
"OOOOOOOOOOOOOOOO oooo.    o OOOO",
"OOOOOOOOOOOOOOOOO.oooo.  oo OOOO",
"OOOOOOOOOOOOOXOOO ..ooo..o OOOOO",
"OOOOOOOOOOOOO OOOO  ..ooo OOOOOO",
"OOOOOOOOOOOO OOOXOO      OOOOOOO",
"OOOOOOOOOOO OOOOOOOO OO OOOOOOOO",
"OOOOOOOOOO OOOXOOXO OO OOOOOOOOO",
"OOOOOOOOO OOOOOOOOOOOOXOOOOOOOOO",
"OOOOOOOO OOOXXXXXXOOOOOOOOOOOOOO",
"OOOOOOOO OO .    .OOOOOOOOOOOOOO",
"OOOOOOOO OO o.. .oOOOOOOOOOOOOOO",
"OOOOOOOOO   oo . oOOOOOOOOOOOOOO",
"OOOOOOOOOOO o .o.oOOOOOOOOOOOOOO",
"OOOOOOOOOOO o.ooooOOOOOOOOOOOOOO",
"OOOOOOOOOOO oo..ooOOOOOOOOOOOOOO",
"OOOOOOOOOOOO.    .OOOOOOOOOOOOOO",
"OOOOOOOOOOOO OOOO OOOOOOOOOOOOOO"
};
