/* XPM */
static char *map_wall[] = {
/* columns rows colors chars-per-pixel */
"32 32 4 1 ",
"  c #260A34",
". c #23338B",
"X c #3C80DB",
"o c white",
/* pixels */
"                                ",
"................................",
"oooooooooooooooooooooooooooooooo",
"o                              o",
"o  oooooooooooooooooooooooooo  o",
"o  XXXXXXXXXXXXXXXXXXXXXXXXXX  o",
"o  XXXXXXXXXXXXXXXXXXXXXXXXXX  o",
"o  XXXXXXXXXXXXXXXXXXXXXXXXXX  o",
"o                         XXX  o",
"o  XXX                    XXX  o",
"o  XXX                    XXX  o",
"o  XXX                    XXX  o",
"o  XXX                    XXX  o",
"o  XXX                    XXX  o",
"o  XXX                    XXX  o",
"o  XXX                    XXX  o",
"o  XXX                    XXX  o",
"o  XXX                    XXX  o",
"o  XXX                    XXX  o",
"o  XXX                    XXX  o",
"o  XXX                    XXX  o",
"o  XXX                    XXX  o",
"o  XXX                    XXX  o",
"o  XXX                         o",
"o  XXXXXXXXXXXXXXXXXXXXXXXXXX  o",
"o  XXXXXXXXXXXXXXXXXXXXXXXXXX  o",
"o  XXXXXXXXXXXXXXXXXXXXXXXXXX  o",
"o  oooooooooooooooooooooooooo  o",
"o                              o",
"oooooooooooooooooooooooooooooooo",
"................................",
"                                "
};
