/* XPM */
static char *map_lava[] = {
/* columns rows colors chars-per-pixel */
"48 48 4 1 ",
"  c #260A34",
". c #800034",
"X c #FF8F00",
"o c white",
/* pixels */
"XX..........XXXXXX..........XXXXXX..........XXXX",
"XX..........XXXXXX..........XXXXXX..........XXXX",
"XXXX......XXXXXXXXXX......XXXXXXXXXX......XXXXXX",
"XXXX......XXXXXXXXXX......XXXXXXXXXX......XXXXXX",
"..XXXXXXXXXX......XXXXXXXXXX......XXXXXXXXXX....",
"..XXXXXXXXXX......XXXXXXXXXX......XXXXXXXXXX....",
"....XXXXXX..........XXXXXX..........XXXXXX......",
"....XXXXXX..........XXXXXX..........XXXXXX......",
"XX..........XXXXXX..........XXXXXX..........XXXX",
"XX..........XXXXXX..........XXXXXX..........XXXX",
"XXXX......XXXXXXXXXX......XXXXXXXXXX......XXXXXX",
"XXXX......XXXXXXXXXX......XXXXXXXXXX......XXXXXX",
"..XXXXXXXXXX......XXXXXXXXXX......XXXXXXXXXX....",
"..XXXXXXXXXX......XXXXXXXXXX......XXXXXXXXXX....",
"....XXXXXX..........XXXXXX..........XXXXXX......",
"....XXXXXX..........XXXXXX..........XXXXXX......",
"XX..........XXXXXX..........XXXXXX..........XXXX",
"XX..........XXXXXX..........XXXXXX..........XXXX",
"XXXX......XXXXXXXXXX......XXXXXXXXXX......XXXXXX",
"XXXX......XXXXXXXXXX......XXXXXXXXXX......XXXXXX",
"..XXXXXXXXXX......XXXXXXXXXX......XXXXXXXXXX....",
"..XXXXXXXXXX......XXXXXXXXXX......XXXXXXXXXX....",
"....XXXXXX..........XXXXXX..........XXXXXX......",
"....XXXXXX..........XXXXXX..........XXXXXX......",
"XX..........XXXXXX..........XXXXXX..........XXXX",
"XX..........XXXXXX..........XXXXXX..........XXXX",
"XXXX......XXXXXXXXXX......XXXXXXXXXX......XXXXXX",
"XXXX......XXXXXXXXXX......XXXXXXXXXX......XXXXXX",
"..XXXXXXXXXX......XXXXXXXXXX......XXXXXXXXXX....",
"..XXXXXXXXXX......XXXXXXXXXX......XXXXXXXXXX....",
"....XXXXXX..........XXXXXX..........XXXXXX......",
"....XXXXXX..........XXXXXX..........XXXXXX......",
"XX..........XXXXXX..........XXXXXX..........XXXX",
"XX..........XXXXXX..........XXXXXX..........XXXX",
"XXXX......XXXXXXXXXX......XXXXXXXXXX......XXXXXX",
"XXXX......XXXXXXXXXX......XXXXXXXXXX......XXXXXX",
"..XXXXXXXXXX......XXXXXXXXXX......XXXXXXXXXX....",
"..XXXXXXXXXX......XXXXXXXXXX......XXXXXXXXXX....",
"....XXXXXX..........XXXXXX..........XXXXXX......",
"....XXXXXX..........XXXXXX..........XXXXXX......",
"XX..........XXXXXX..........XXXXXX..........XXXX",
"XX..........XXXXXX..........XXXXXX..........XXXX",
"XXXX......XXXXXXXXXX......XXXXXXXXXX......XXXXXX",
"XXXX......XXXXXXXXXX......XXXXXXXXXX......XXXXXX",
"..XXXXXXXXXX......XXXXXXXXXX......XXXXXXXXXX....",
"..XXXXXXXXXX......XXXXXXXXXX......XXXXXXXXXX....",
"....XXXXXX..........XXXXXX..........XXXXXX......",
"....XXXXXX..........XXXXXX..........XXXXXX......"
};
