/* XPM */
static char *run0[] = {
/* columns rows colors chars-per-pixel */
"32 32 5 1 ",
"  c #515262",
". c #63787D",
"X c #8EA091",
"o c #F2D3AB",
"O c None",
/* pixels */
"OOOOOOOOOOOOOO OOOOOOOOOOOOOOOOO",
"OOOOOOOOOOOOOOO OOOOOOOOOOOOOOOO",
"OOOOOOOOOOOOOOOOOOOOOOOOOOOOOOOO",
"OOOOOOOOOOOOOOO OOOOOOOOOOOOOOOO",
"OOOOOOOOOOOOOOO OOOOOOOOOOOOOOOO",
"OOOOOOOOOOOOOOO OOOOOOOOOOOOOOOO",
"OOOOOOOOOOOOOOO OOOOOOOOOOOOOOOO",
"OOOOOOOOOOOOO      OOOOOOOOOOOOO",
"OOOOOOOOOOOO .XXXX. OOOOOOOOOOOO",
"OOOOOOOOOOO .X .XXXX OOOOOOOOOOO",
"OOOOOOOOOOO.X .XX.XX.OOOOOOOOOOO",
"OOOOOOOOOO.X .XX.  XX OOOOOOOOOO",
"OOOOOOOOOO.X.XX. oo X OOOOOOOOOO",
"OOOOOOOOOO.XXXX. oo X OOOOOOOOOO",
"OOOOOOOOO  XXXX. oo X OOOOOOOOOO",
"OOOOOOOO OO.XXXX.  XXOOOOOOOOOOO",
"OOOOOOOO OO ..XXX..X OOOOOOOOOOO",
"OOOOOOOO OOO  ..XXX OOOOOOOOOOOO",
"OOOOOOOO OOOO      OOOOOOOOOOOOO",
"OOOOOOOO OOOOO OO OOOOOOOOOOOOOO",
"OOOOOOOO OOOOOO O OOOOOOOOOOOOOO",
"OOOOOOOO OOO .    .OOOOOOOOOOOOO",
"OOOOOOOOO OO X.. .XOOOOOOOOOOOOO",
"OOOOOOOOOO   XXX XXOOOOOOOOOOOOO",
"OOOOOOOOOOOO XX  XXOOOOOOOOOOOOO",
"OOOOOOOOOOOO XX . XOOOOOOOOOOOOO",
"OOOOOOOOOOOO X .X.XOOOOOOOOOOOOO",
"OOOOOOOOOOOO X.XXXXOOOOOOOOOOOOO",
"OOOOOOOOOOOO XX..XXOOOOOOOOOOOOO",
"OOOOOOOOOOOOO.    .OOOOOOOOOOOOO",
"OOOOOOOOOOOOO OOOO OOOOOOOOOOOOO",
"OOOOOOOOOOOOO OOOOOOOOOOOOOOOOOO"
};
