/* XPM */
static char *run1[] = {
/* columns rows colors chars-per-pixel */
"32 32 5 1 ",
"  c #515262",
". c #63787D",
"X c #8EA091",
"o c #F2D3AB",
"O c None",
/* pixels */
"OOOOOOOOOOOOOOOOOOOOOOOOOOOOOOOO",
"OOOOOOOOOOOOOOOOOOOOOOOOOOOOOOOO",
"OOOOOOOOOOOOOOOOOOOOOOOOOOOOOOOO",
"OOOOOOOOOOOOOOOO OOOOOOOOOOOOOOO",
"OOOOOOOOOOOOOOOO OOOOOOOOOOOOOOO",
"OOOOOOOOOOOOOOOOOOOOOOOOOOOOOOOO",
"OOOOOOOOOOOOOOOO OOOOOOOOOOOOOOO",
"OOOOOOOOOOOOOOOO OOOOOOOOOOOOOOO",
"OOOOOOOOOOOOOOOO OOOOOOOOOOOOOOO",
"OOOOOOOOOOOOOOOO OOOOOOOOOOOOOOO",
"OOOOOOOOOOOOOO      OOOOOOOOOOOO",
"OOOOOOOOOOOOO .XXXX. OOOOOOOOOOO",
"OOOOOOOOOOOO .X .XXXX OOOOOOOOOO",
"OOOOOOOOOOOO.X .XX.XX.OOOOOOOOOO",
"OOOOOOOOOOO.X .XX.  XX OOOOOOOOO",
"OOOOOOOOOOO.X.XX. oo X OOOOOOOOO",
"OOOOOOOOOO .XXXX. oo X OOOOOOOOO",
"OOOOOOOOO O XXXX. oo X OOOOOOOOO",
"OOOOOOOOO OO.XXXX.  XXOOOOOOOOOO",
"OOOOOOOO OOO ..XXX..X OOOOOOOOOO",
"OOOOOOOO OOOO  ..XXX OOOOOOOOOOO",
"OOOOOOOO OOOO       OOOOOOOOOOOO",
"OOOOOOOOO OOO X.. .XOOOOOOOOOOOO",
"OOOOOOOOO O   XXX XXOOOOOOOOOOOO",
"OOOOOOOOOO OO XX  XXOOOOOOOOOOOO",
"OOOOOOOOOOOOO XX . XOOOOOOOOOOOO",
"OOOOOOOOOOOOO X .X.XOOOOOOOOOOOO",
"OOOOOOOOOOOOO X.XXXXOOOOOOOOOOOO",
"OOOOOOOOOOOOO XX..XXOOOOOOOOOOOO",
"OOOOOOOOOOOOOO.    .OOOOOOOOOOOO",
"OOOOOOOOOOOOOO OOOO OOOOOOOOOOOO",
"OOOOOOOOOOOOOOOOOOO OOOOOOOOOOOO"
};
