/* XPM */
static char *run2[] = {
/* columns rows colors chars-per-pixel */
"32 32 5 1 ",
"  c #515262",
". c #63787D",
"X c #8EA091",
"o c #F2D3AB",
"O c None",
/* pixels */
"OOOOOOOOOOOOOOOOOOOOOOOOOOOOOOOO",
"OOOOOOOOOOOOOOOOOOOOOOOOOOOOOOOO",
"OOOOOOOOOOOOOOOOO OOOOOOOOOOOOOO",
"OOOOOOOOOOOOOOOO OOOOOOOOOOOOOOO",
"OOOOOOOOOOOOOOOOOOOOOOOOOOOOOOOO",
"OOOOOOOOOOOOOOOO OOOOOOOOOOOOOOO",
"OOOOOOOOOOOOOOOO OOOOOOOOOOOOOOO",
"OOOOOOOOOOOOOOOO OOOOOOOOOOOOOOO",
"OOOOOOOOOOOOOOOO OOOOOOOOOOOOOOO",
"OOOOOOOOOOOOOO      OOOOOOOOOOOO",
"OOOOOOOOOOOOO .XXXX. OOOOOOOOOOO",
"OOOOOOOOOOOO .X .XXXX OOOOOOOOOO",
"OOOOOOOOOOOO.X .XX.XX.OOOOOOOOOO",
"OOOOOOOOOOO.X .XX.  XX OOOOOOOOO",
"OOOOOOOOOOO.X.XX. oo X OOOOOOOOO",
"OOOOOOOOOO .XXXX. oo X OOOOOOOOO",
"OOOOOOOOO O XXXX. oo X OOOOOOOOO",
"OOOOOOOO OOO.XXXX.  XXOOOOOOOOOO",
"OOOOOOOO OOO ..XXX..X OOOOOOOOOO",
"OOOOOOOO OOOO  ..XXX OOOOOOOOOOO",
"OOOOOOOOO OOOO      OOOOOOOOOOOO",
"OOOOOOOOO OOO .    .OOOOOOOOOOOO",
"OOOOOOOOOO OO X.. .XOOOOOOOOOOOO",
"OOOOOOOOOOO   XXX XXOOOOOOOOOOOO",
"OOOOOOOOOOOOO XX  XXOOOOOOOOOOOO",
"OOOOOOOOOOOOO XX . XOOOOOOOOOOOO",
"OOOOOOOOOOOOO X .X.XOOOOOOOOOOOO",
"OOOOOOOOOOOOO X.XXXXOOOOOOOOOOOO",
"OOOOOOOOOOOOO XX..XXOOOOOOOOOOOO",
"OOOOOOOOOOOOOO.    .OOOOOOOOOOOO",
"OOOOOOOOOOOOOOOO  OOOOOOOOOOOOOO",
"OOOOOOOOOOOOOOOOO OOOOOOOOOOOOOO"
};
