/* XPM */
static char *run4[] = {
/* columns rows colors chars-per-pixel */
"32 32 5 1 ",
"  c #515262",
". c #63787D",
"X c #8EA091",
"o c #F2D3AB",
"O c None",
/* pixels */
"OOOOOOOOOOOOOOOOOOOOOOOOOOOOOOOO",
"OOOOOOOOOOOOOOOOOOOOOOOOOOOOOOOO",
"OOOOOOOOOOOOOO OOOOOOOOOOOOOOOOO",
"OOOOOOOOOOOOOOO OOOOOOOOOOOOOOOO",
"OOOOOOOOOOOOOOOOOOOOOOOOOOOOOOOO",
"OOOOOOOOOOOOOOO OOOOOOOOOOOOOOOO",
"OOOOOOOOOOOOOOO OOOOOOOOOOOOOOOO",
"OOOOOOOOOOOOOOO OOOOOOOOOOOOOOOO",
"OOOOOOOOOOOOOOO OOOOOOOOOOOOOOOO",
"OOOOOOOOOOOOO      OOOOOOOOOOOOO",
"OOOOOOOOOOOO .XXXX. OOOOOOOOOOOO",
"OOOOOOOOOOO .X .XXXX OOOOOOOOOOO",
"OOOOOOOOOOO.X .XX.XX.OOOOOOOOOOO",
"OOOOOOOOOO.X .XX.  XX OOOOOOOOOO",
"OOOOOOOOOO.X.XX. oo X OOOOOOOOOO",
"OOOOOOOOO .XXXX. oo X OOOOOOOOOO",
"OOOOOOOOOO XXXX. oo X OOOOOOOOOO",
"OOOOOOOOOOO.XXXX.  XXOOOOOOOOOOO",
"OOOOOOOO OO ..XXX..X OOOOOOOOOOO",
"OOOOOOO OOOO  ..XXX OOOOOOOOOOOO",
"OOOOOOO OOOOO      OOOOOOOOOOOOO",
"OOOOOOO OOOO .    .OOOOOOOOOOOOO",
"OOOOOOOO OOO X.. .XOOOOOOOOOOOOO",
"OOOOOOOO O   XXX XXOOOOOOOOOOOOO",
"OOOOOOOOO OO XX  XXOOOOOOOOOOOOO",
"OOOOOOOOOOOO XX . XOOOOOOOOOOOOO",
"OOOOOOOOOOOO X .X.XOOOOOOOOOOOOO",
"OOOOOOOOOOOO X.XXXXOOOOOOOOOOOOO",
"OOOOOOOOOOOO XX..XXOOOOOOOOOOOOO",
"OOOOOOOOOOOOO.    .OOOOOOOOOOOOO",
"OOOOOOOOOOOOOO OOO OOOOOOOOOOOOO",
"OOOOOOOOOOOOOO OOO OOOOOOOOOOOOO"
};
